<?xml version="1.0" encoding="utf-8"?>
<!-- Generator: Adobe Illustrator 25.2.3, SVG Export Plug-In . SVG Version: 6.00 Build 0)  -->
<svg version="1.1" id="Layer_1" xmlns="http://www.w3.org/2000/svg" xmlns:xlink="http://www.w3.org/1999/xlink" x="0px" y="0px"
	 viewBox="0 0 588.4 287.2" style="enable-background:new 0 0 588.4 287.2;" xml:space="preserve">
<style type="text/css">
	.st0{fill:#461000;}
	.st1{fill:#FFCA05;}
	.st2{fill:#FFFFFF;}
</style>
<g>
	<path class="st0" d="M88.4,189.6c-4.7,6.6-9.3,13.5-11.3,21.4c-1.9,7.9-0.5,17.1,5.5,22.5c4.2,3.7,48.7,40.6,48.7,40.6l41.6-9.6
		H193c0,0,6.1-26.8,16.2-27.2c50-2.2,98-9.4,147.2-18.8c23.7-4.5,47.7-7,71.1-13s71.3,6.5,88.3-10.6c9.5-9.5,28.5-8.9,24.8-21.8
		c-1.4-4.8-26.8-19.2-40.8-33.5c-9-9.2-7.8-20.2-10.2-22.3c-38.7-31.9-52.7-38.4-52.7-38.4L130.9,126
		C130.9,126,101.4,171.1,88.4,189.6z"/>
	<polygon class="st1" points="305.6,22.4 333.1,22.6 348.9,0 357.3,26.2 383.6,34.3 361.2,50.4 361.7,77.9 339.5,61.6 313.5,70.6 
		322.1,44.4 	"/>
	<polygon class="st2" points="199.6,29.6 220.8,24.5 228.8,4.2 240.1,22.8 261.9,24.1 247.7,40.7 253.2,61.8 233.1,53.4 214.7,65.1 
		216.5,43.4 	"/>
	<path class="st0" d="M69.1,214.6c-6.5-1-12.8-4.2-17.8-9.1L9.8,164.1c-6.4-6.5-9.9-15-9.8-23.4c0.1-7,2.8-13.4,7.5-17.9l99-96.4
		c6-5.9,14.3-8.5,22.8-7.3c5.9,0.9,11.2,3.6,15.5,7.8L177,58.6c10.4,10.1,11.6,26.9,2.8,38.1L92.6,205.8
		C87.1,212.7,78.3,216,69.1,214.6C69.1,214.6,69.1,214.6,69.1,214.6"/>
	<path class="st2" d="M118.6,32.4L17,131.4c-5.5,5.3-4.4,15.6,2.6,22.7l42.3,42.2c7.1,7,17,7.7,21.9,1.6L173.2,86
		c4.7-5.9,3.9-15.1-1.7-20.6l-33.1-32.6C132.9,27.3,124,27.1,118.6,32.4 M152.8,99.1l-8-7.7c3.6-6.9,2.9-15.7-1.8-22.5l6.9-7.8
		C158.4,72.1,159.6,87.6,152.8,99.1 M147.6,105.4c-9.8,8.8-24.8,8.7-36.8-0.3l7-7.9c7.1,4.7,15.6,4.8,21.8,0.3L147.6,105.4z
		 M68.7,151.9c1.7-1.9,5-1.7,7.2,0.5l9.6,9.4c2.3,2.2,2.7,5.6,1.1,7.6l-2.8,3.4c-1.7,2-4.9,1.8-7.2-0.5l-9.7-9.5
		c-2.3-2.3-2.7-5.7-1-7.6L68.7,151.9z M83.2,135.8c1.7-1.9,4.9-1.7,7.1,0.4l9.3,9.1c2.2,2.1,2.6,5.5,1,7.4l-2.8,3.4
		c-1.7,2-4.8,1.8-7.1-0.4l-9.5-9.2c-2.2-2.2-2.6-5.5-0.9-7.4L83.2,135.8z M97.5,119.7c1.7-1.9,4.8-1.8,6.9,0.3l9,8.8
		c2.1,2.1,2.5,5.4,0.9,7.3l-2.8,3.4c-1.6,2-4.8,1.9-6.9-0.2l-9.2-9c-2.2-2.1-2.5-5.4-0.8-7.3L97.5,119.7z M119.4,88.6
		c-5.1-5-5.7-12.9-1.3-17.6c4.4-4.7,11.9-4.5,16.9,0.3c4.9,4.8,5.6,12.7,1.4,17.6C132.2,93.7,124.6,93.6,119.4,88.6 M44,127.3
		c1.8-1.8,5.1-1.5,7.3,0.8l9.5,9.5c2.2,2.2,2.6,5.6,0.9,7.5l-3,3.2c-1.7,1.9-5,1.6-7.3-0.7l-9.6-9.7c-2.3-2.3-2.6-5.6-0.8-7.5
		L44,127.3z M59.2,112c1.8-1.8,5-1.5,7.2,0.6l9.2,9.2c2.2,2.1,2.5,5.4,0.8,7.3l-3,3.2c-1.7,1.9-5,1.6-7.2-0.6l-9.4-9.4
		c-2.2-2.2-2.5-5.5-0.7-7.3L59.2,112z M74.3,96.6c1.8-1.8,5-1.6,7.1,0.5l8.9,8.9c2.1,2.1,2.4,5.3,0.7,7.2l-3,3.2
		c-1.7,1.9-4.9,1.7-7-0.4l-9.1-9c-2.1-2.1-2.4-5.4-0.6-7.2L74.3,96.6z M101,59.7l8.5,8.5c-3.9,6.6-3.3,15.5,1.6,22.6l-7.2,7.8
		C94.3,86.6,93.1,70.6,101,59.7 M106.8,54c10.8-8,26-7.6,37.1,1l-7.1,7.8c-6.7-4.4-15.2-4.6-21.6-0.4L106.8,54z"/>
	<g>
		<path class="st0" d="M168.3,196.4c-3.9,0-7.3-2.8-8-6.7l-2.6-14l-17.3-25.3c-2,0.2-4-0.3-5.6-1.5c-1.8-1.3-2.9-3.2-3.3-5.3
			l-1.3-8.5c-0.3-2.1,0.2-4.3,1.5-6.1c1.3-1.8,3.2-2.9,5.3-3.3l23-3.6c0.8-0.1,1.5-0.1,2.3,0c0.7-0.3,1.4-0.5,2.2-0.7l21.8-3.5
			c4.5-0.7,8.7,2.3,9.4,6.8l1.3,8.5c0.3,2.1-0.2,4.3-1.5,6.1c-1.1,1.5-2.7,2.6-4.5,3.1l-5.8,29.3l1.6,13.8c0.5,4.3-2.5,8.3-6.7,9
			l-10.3,1.8C169.3,196.4,168.8,196.4,168.3,196.4z"/>
		<path class="st0" d="M195.4,176.5c-0.5,0-0.9,0-1.4,0c-3.9-0.2-7.1-3-7.8-6.9l-1.4-8.7c-0.4-2.3,0.3-4.7,1.8-6.5
			c1.5-1.8,3.7-2.9,6-3c0.1,0,0.1,0,0.2,0c0.3-1.1,0.8-3.9,0.1-9.7l0-0.1c-3.2-0.7-5.8-3.3-6.3-6.7l-1.3-8.5
			c-0.3-2.1,0.2-4.3,1.5-6.1c1.3-1.8,3.2-2.9,5.3-3.3l44.2-7c4.5-0.7,8.7,2.3,9.4,6.8l1.3,8.5c0.3,2.1-0.2,4.3-1.5,6.1
			c-0.7,0.9-1.5,1.6-2.4,2.2l1.6,10.2c1.1,0.2,2.1,0.7,3,1.4c1.8,1.3,2.9,3.2,3.3,5.3l1.3,8.5c0.3,2.1-0.2,4.3-1.5,6.1
			c-1.3,1.8-3.2,2.9-5.3,3.3l-22.7,3.6c-3.1,0.5-6-0.8-7.8-3.1c-3.2,3.5-7.8,6.2-14.5,7.3C198.9,176.3,197.2,176.5,195.4,176.5z"/>
		<path class="st0" d="M250.5,167.4c-4,0-7.4-2.9-8.1-6.9l-1.3-8.5c-0.3-2.1,0.2-4.3,1.5-6.1c0.7-0.9,1.5-1.6,2.4-2.2l-1.6-10.2
			c-1.1-0.2-2.1-0.7-3-1.4c-1.8-1.3-2.9-3.2-3.3-5.3l-1.3-8.5c-0.7-4.5,2.3-8.7,6.8-9.4l21.1-3.3c0.8-0.1,1.5-0.1,2.2,0
			c0.7-0.3,1.4-0.5,2.1-0.6l19.1-3c4.5-0.7,8.7,2.3,9.4,6.8l1.3,8.5c0.3,2.1-0.2,4.3-1.5,6.1c-1.3,1.8-3.2,2.9-5.3,3.3l-0.9,0.1
			l-2.3,4l4.9,4.9l1.1-0.2c2.1-0.3,4.3,0.2,6.1,1.5c1.8,1.3,2.9,3.2,3.3,5.3l1.3,8.5c0.3,2.1-0.2,4.3-1.5,6.1
			c-1.3,1.8-3.2,2.9-5.3,3.3l-12.8,2c-2.3,0.4-4.7-0.3-6.5-1.8c-0.1,0.2-0.2,0.3-0.3,0.5c-1.3,1.8-3.2,2.9-5.3,3.3l-21.1,3.3
			C251.3,167.3,250.9,167.4,250.5,167.4z"/>
		<path class="st0" d="M317.6,158c-4.2,0-8.2-0.7-11.8-2.2c-6.6-2.7-14.9-9-17.3-24.3c-1.5-9.4,0.4-17.8,5.5-24.2
			c4.8-6,12.1-10,21.1-11.4c14.2-2.3,26.1,3.8,31.7,16.2c2.3,4.8,3,9.6,3.5,12.4l0.1,0.4c0.2,1.4,0.1,2.7-0.3,3.9
			c0.6,1.3,0.8,2.8,0.6,4.2c-0.9,7.7-5.5,21-26.5,24.4C321.9,157.8,319.7,158,317.6,158z"/>
		<path class="st0" d="M351.2,151.4c-4,0-7.4-2.9-8.1-6.9l-1.3-8.5c-0.3-2.1,0.2-4.3,1.5-6.1c0.7-0.9,1.5-1.6,2.4-2.2l-1.6-10.2
			c-3.2-0.7-5.7-3.3-6.2-6.7l-1.3-8.5c-0.7-4.5,2.3-8.7,6.8-9.4l22-3.5c1.2-0.2,2.4-0.1,3.5,0.2c1-0.7,2.1-1.1,3.3-1.3l22.1-3.5
			c4.5-0.7,8.7,2.3,9.4,6.8l1.3,8.5c0.3,2.1-0.2,4.3-1.5,6.1c-0.7,0.9-1.5,1.6-2.4,2.2l1.6,10.2c3.2,0.7,5.7,3.3,6.2,6.7l1.3,8.5
			c0.3,2.1-0.2,4.3-1.5,6.1c-1.3,1.8-3.2,2.9-5.3,3.3l-22.1,3.5c-1.2,0.2-2.4,0.1-3.5-0.2c-1,0.7-2.1,1.1-3.3,1.3l-22,3.5
			C352.1,151.4,351.7,151.4,351.2,151.4z"/>
	</g>
	<g>
		<path class="st0" d="M46.1,287.2c-4,0-7.4-2.9-8.1-6.9l-2.2-13.6c-0.7-4.5,2.3-8.7,6.8-9.4l2.7-0.4l5.2-10.5l-6.6-5.9l-1.9,0.3
			c-4.5,0.7-8.7-2.3-9.4-6.8l-2.2-13.6c-0.7-4.5,2.3-8.7,6.8-9.4l24.1-3.8c0.9-0.1,1.8-0.1,2.6,0c0.8-0.4,1.6-0.7,2.5-0.8l23-3.6
			c0.9-0.1,1.8-0.1,2.6,0c0.8-0.4,1.6-0.7,2.5-0.8l24.1-3.8c2.1-0.3,4.3,0.2,6.1,1.5c1.8,1.3,2.9,3.2,3.3,5.3l2.2,13.6
			c0.7,4.5-2.3,8.7-6.8,9.4l-1.9,0.3L117,236l8.2,8.3l2.7-0.4c2.1-0.3,4.3,0.2,6.1,1.5c1.8,1.3,2.9,3.2,3.3,5.3l2.2,13.6
			c0.7,4.5-2.3,8.7-6.8,9.4l-17.6,2.8c-2.7,0.4-5.5-0.5-7.3-2.6c-0.2,0.5-0.5,1-0.8,1.5c-1.3,1.8-3.2,2.9-5.3,3.3l-23,3.6
			c-2.1,0.3-4.3-0.2-6.1-1.5c-0.5-0.3-0.9-0.7-1.2-1.1c-1.1,2.5-3.4,4.3-6.2,4.7l-17.6,2.8C46.9,287.2,46.5,287.2,46.1,287.2z
			 M57.9,268.3c-0.1,0.2-0.3,0.4-0.4,0.6l0.2,0L57.9,268.3z M116.8,259l0.4,0.5l0.2,0C117.2,259.3,117,259.2,116.8,259z M51.6,225.5
			c0.2,0.1,0.3,0.2,0.4,0.4l1.3,1.1c0.1-0.6,0.2-1.2,0.4-1.8c0,0,0,0,0,0L51.6,225.5z M107.5,216.6
			C107.5,216.6,107.5,216.6,107.5,216.6c0.4,0.5,0.7,1.1,1,1.6l0.9-1.5c0.1-0.2,0.2-0.3,0.3-0.5L107.5,216.6z"/>
		<path class="st0" d="M155.4,268.9c-3.8,0-7.2-2.6-8-6.5l-3-14l-18.1-20.9l-0.9,0.1c-2.1,0.3-4.3-0.2-6.1-1.5
			c-1.8-1.3-2.9-3.2-3.3-5.3l-2.2-13.6c-0.7-4.5,2.3-8.7,6.8-9.4l26.5-4.2c1.3-0.2,2.6-0.1,3.8,0.3c1-0.7,2.2-1.2,3.5-1.5l24.7-3.9
			c2.1-0.3,4.3,0.2,6.1,1.5c1.8,1.3,2.9,3.2,3.3,5.3l2.2,13.6c0.3,2.1-0.2,4.3-1.5,6.1c-1.3,1.8-3.2,2.9-5.3,3.3l-0.5,0.1l-7.6,24.8
			l1.7,13.8c0.5,4.3-2.4,8.2-6.6,9l-14,2.6C156.4,268.8,155.9,268.9,155.4,268.9z M156.6,237.5l1.6,1.8c0.5,0.6,1,1.3,1.3,2
			c0.1-0.4,0.1-0.8,0.3-1.2l1-3.3c-0.5,0.2-1.1,0.4-1.6,0.5C158.3,237.5,157.4,237.6,156.6,237.5z M134.5,212.3
			c0.4,0.3,0.8,0.7,1.2,1.1l3.2,3.7c-0.2-1.4,0-2.8,0.5-4.1c0.2-0.6,0.5-1.1,0.8-1.6L134.5,212.3z M166.2,207.3
			c0.3,0.3,0.7,0.6,1,0.9c0.7,0.7,1.2,1.6,1.6,2.5l0.6-1.9c0.2-0.8,0.6-1.5,1.1-2.2L166.2,207.3z"/>
		<path class="st0" d="M190.7,264.5c-0.5,0-0.9,0-1.4,0c-3.9-0.2-7.1-3-7.8-6.9l-2.1-13.5c-0.4-2.3,0.3-4.6,1.7-6.4
			c1.4-1.8,3.6-2.9,5.9-3.1c1.4-0.1,2.5-0.4,2.8-0.9c1-1.7,1.5-7,0.4-14.5l-0.3-2c-1.6-0.1-3.1-0.6-4.4-1.5
			c-1.8-1.3-2.9-3.2-3.3-5.3l-2.2-13.6c-0.7-4.5,2.3-8.7,6.8-9.4l57.6-9.1c2.1-0.3,4.3,0.2,6.1,1.5c1.8,1.3,2.9,3.2,3.3,5.3
			l2.2,13.6c0.6,3.7-1.4,7.3-4.7,8.7l2.6,16.7c3.6,0.4,6.6,3.1,7.2,6.9l2.2,13.6c0.3,2.1-0.2,4.3-1.5,6.1c-1.3,1.8-3.2,2.9-5.3,3.3
			l-28.2,4.5c-4.5,0.7-8.7-2.3-9.4-6.8l-0.3-1.7c-0.5,0.9-1,1.7-1.5,2.4c-4.2,6-11.4,10.2-19.3,11.5
			C195.2,264.3,192.9,264.5,190.7,264.5z M205.8,237.6c-0.5,1.7-1.2,3.3-2,4.6c0,0,0,0,0,0.1c-0.6,1.1-1.4,2-2.2,2.9
			c0.9-0.7,1.7-1.4,2.2-2.2C204.6,241.7,205.3,239.9,205.8,237.6z M230.6,197.1c1.6,1.2,2.7,3,3.1,5.2l5.1,32.3
			c0.3,2.1-0.1,4.2-1.3,5.9l4.5-0.7c-1.6-1.2-2.7-3-3.1-5.2l-5.1-32.3c-0.3-2.1,0.2-4.2,1.3-5.9L230.6,197.1z M201.6,201.7
			c1,0.8,1.8,1.8,2.3,2.9c0.2-1.3,0.6-2.5,1.3-3.5L201.6,201.7z"/>
		<path class="st0" d="M262.8,266.3c-3.9,0-7.3-2.7-8-6.6l-5.1-26.8c-0.4-2.2,0.1-4.4,1.3-6.2c1.3-1.8,3.2-3,5.4-3.4l1.5-0.2
			c0.8-2.3,1.5-5.4,1.8-8.7c0.2-2.7,0.2-5.4,0-8c-1.6-0.1-3.1-0.6-4.3-1.5c-1.8-1.3-2.9-3.2-3.3-5.3l-2.2-13.6
			c-0.7-4.5,2.3-8.7,6.8-9.4l57.2-9.1c2.1-0.3,4.3,0.2,6.1,1.5c1.8,1.3,2.9,3.2,3.3,5.3l2.2,13.6c0.6,3.7-1.4,7.3-4.7,8.7l2.5,16.1
			l0.3-0.1c2.2-0.3,4.4,0.2,6.2,1.5c1.8,1.3,2.9,3.3,3.2,5.5l3.3,27.1c0.5,4.4-2.5,8.4-6.8,9.1l-14,2.2c-4.5,0.7-8.7-2.3-9.4-6.8
			l-0.8-4.9l-21.2,3.4l0.8,4.9c0.3,2.1-0.2,4.3-1.5,6.1c-1.3,1.8-3.2,2.9-5.3,3.3l-14,2.2C263.7,266.2,263.2,266.3,262.8,266.3z
			 M267.3,237.7l0.3,1.3c1.2-2.2,3.3-3.9,6-4.3l2-0.3c-0.4-0.3-0.7-0.6-1-1c-0.8-1-1.4-2.1-1.7-3.4c-0.6,1.5-1.1,2.7-1.4,3.4
			C270.6,235.4,269.1,236.9,267.3,237.7z M316.7,230.1c0.1,0.1,0.2,0.1,0.3,0.2c0.4,0.3,0.7,0.5,1,0.9l-0.1-1.1l-0.1,0
			C317.4,230.1,317.1,230.1,316.7,230.1z M300.4,186.1c1.5,1.3,2.5,3,2.8,5l5.2,32.8c0.3,2-0.1,4-1.1,5.6l3.7-0.6
			c0.4-0.1,0.7-0.1,1.1-0.1c-0.1-0.1-0.2-0.1-0.3-0.2c-1.8-1.3-2.9-3.2-3.3-5.3l-5.1-32c-0.3-2.1,0.2-4.2,1.3-5.9L300.4,186.1z
			 M271.8,190.6c0.7,0.6,1.3,1.2,1.8,2c0.2-0.9,0.5-1.7,1-2.5L271.8,190.6z"/>
		<path class="st0" d="M333.6,241.7c-1.7,0-3.4-0.5-4.8-1.6c-1.8-1.3-2.9-3.2-3.3-5.3l-2.2-13.6c-0.6-3.7,1.4-7.3,4.7-8.7l-2.6-16.7
			c-1.4-0.2-2.8-0.7-3.9-1.5c-1.8-1.3-2.9-3.2-3.3-5.3l-2.2-13.6c-0.7-4.5,2.3-8.7,6.8-9.4l54.2-8.6c2.1-0.3,4.3,0.2,6.1,1.5
			c1.8,1.3,2.9,3.2,3.3,5.3l3,19.1c0.7,4.5-2.3,8.7-6.8,9.4l-8,1.3l0.6,3.8l8.8-1.4c4.5-0.7,8.7,2.3,9.4,6.8l3.2,20.4
			c0.3,2.1-0.2,4.3-1.5,6.1c-1.3,1.8-3.2,2.9-5.3,3.3l-54.9,8.7C334.5,241.7,334,241.7,333.6,241.7z M337.3,180.2
			c1.6,1.3,2.7,3.1,3.1,5.2l5.1,32.3c0.3,2.1-0.2,4.2-1.3,5.9l4.6-0.7c-1.6-1.2-2.8-3.1-3.1-5.2l-1.6-10.3c-0.4-2.5,0.4-4.9,2-6.7
			c-0.2-0.1-0.5-0.3-0.7-0.4c-1.8-1.3-2.9-3.2-3.3-5.3l-1.5-9.4c-0.3-2.1,0.1-4.2,1.3-5.9L337.3,180.2z"/>
		<path class="st0" d="M393.1,232.5c-0.5,0-1,0-1.4,0c-3.9-0.2-7.1-3-7.7-6.9l-2.1-13.5c-0.4-2.3,0.3-4.6,1.7-6.4
			c1.4-1.8,3.6-2.9,5.9-3.1c1.4-0.1,2.5-0.4,2.8-0.9c1-1.7,1.5-7,0.3-14.5l-0.3-2c-1.6-0.1-3.1-0.6-4.4-1.5
			c-1.8-1.3-2.9-3.2-3.3-5.3l-2.2-13.6c-0.7-4.5,2.3-8.7,6.8-9.4l57.6-9.1c2.1-0.3,4.3,0.2,6.1,1.5s2.9,3.2,3.3,5.3l2.2,13.6
			c0.6,3.7-1.4,7.3-4.7,8.7l2.6,16.7c1.4,0.2,2.8,0.7,3.9,1.5c1.8,1.3,2.9,3.2,3.3,5.3l2.2,13.6c0.3,2.1-0.2,4.3-1.5,6.1
			c-1.3,1.8-3.2,2.9-5.3,3.3l-28.2,4.5c-4.5,0.7-8.7-2.3-9.4-6.8l-0.3-1.7c-0.5,0.9-1,1.7-1.5,2.4c-4.2,6-11.4,10.2-19.3,11.5
			C397.6,232.3,395.3,232.5,393.1,232.5z M408.2,205.6c-0.5,1.7-1.2,3.3-2,4.6c0,0,0,0,0,0.1c-0.6,1.1-1.4,2-2.2,2.9
			c0.9-0.7,1.7-1.4,2.2-2.2C407,209.6,407.7,207.8,408.2,205.6z M433,165.1c1.6,1.2,2.7,3,3.1,5.2l5.1,32.3c0.3,2.1-0.2,4.2-1.3,5.9
			l4.5-0.7c-1.6-1.3-2.7-3.1-3.1-5.2l-5.1-32.3c-0.3-2.1,0.2-4.2,1.3-5.9L433,165.1z M404.1,169.6c1,0.8,1.8,1.8,2.3,2.9
			c0.2-1.3,0.6-2.5,1.3-3.5L404.1,169.6z"/>
		<path class="st0" d="M466.1,220.7c-4,0-7.4-2.9-8.1-6.9l-2.2-13.6c-0.3-2.1,0.2-4.3,1.5-6.1c0.8-1.2,2-2.1,3.3-2.6l-2.6-16.7
			c-1.4-0.2-2.8-0.7-3.9-1.5c-1.8-1.3-2.9-3.2-3.3-5.3l-2.2-13.6c-0.7-4.5,2.3-8.7,6.8-9.4l54.2-8.6c2.1-0.3,4.3,0.2,6.1,1.5
			s2.9,3.2,3.3,5.3l3,19.1c0.7,4.5-2.3,8.7-6.8,9.4l-8,1.3l0.6,3.8l8.8-1.4c4.5-0.7,8.7,2.3,9.4,6.8l3.2,20.4
			c0.3,2.1-0.2,4.3-1.5,6.1s-3.2,2.9-5.3,3.3l-54.9,8.7C467,220.7,466.6,220.7,466.1,220.7z M469.9,159.2c1.6,1.3,2.7,3.1,3.1,5.2
			l5.1,32.3c0.3,2.1-0.1,4.2-1.3,5.9l4.6-0.7c-1.6-1.2-2.8-3.1-3.2-5.2l-1.6-10.3c-0.3-2.1,0.2-4.3,1.5-6.1c0.2-0.2,0.3-0.4,0.5-0.6
			c-0.2-0.1-0.5-0.3-0.7-0.4c-1.8-1.3-2.9-3.2-3.3-5.3l-1.5-9.4c-0.3-2.1,0.2-4.2,1.3-5.9L469.9,159.2z"/>
		<path class="st0" d="M528.4,210.9c-4,0-7.4-2.9-8.1-6.9l-2.2-13.6c-0.6-3.7,1.4-7.3,4.7-8.7l-2.6-16.7c-1.4-0.2-2.8-0.7-3.9-1.5
			c-1.8-1.3-2.9-3.2-3.3-5.3l-2.2-13.6c-0.7-4.5,2.3-8.7,6.8-9.4l34.3-5.4c7.4-1.2,16.9-1.7,25.1,4.2c4.1,3,9.3,8.7,10.9,18.9
			c0.6,3.8,1.3,13.4-5,21.9c-4.9,6.7-12.6,9.5-18,10.7l1.8,11.2c0.7,4.5-2.3,8.7-6.8,9.4l-30.4,4.8
			C529.2,210.8,528.8,210.9,528.4,210.9z M532.1,149.4c1.6,1.3,2.7,3.1,3.1,5.2l5.1,32.3c0.3,2.1-0.2,4.2-1.3,5.9l3.8-0.6
			c-1.2-1.2-2-2.8-2.2-4.4l-1-6.4c-0.4-2.2,0.2-4.4,1.5-6.1c-1.7-1.2-2.9-3.1-3.3-5.4l-2.4-15.3c-0.3-2.1,0.2-4.2,1.3-5.9
			L532.1,149.4z M565.5,146c3.1,2.3,5.1,5.8,5.9,10.5c0.3,1.9,0.3,3.8,0,5.5c1-2.9,0.7-5.7,0.5-6.7c-0.6-3.9-2-6.6-4.4-8.3
			C566.9,146.6,566.2,146.3,565.5,146z"/>
	</g>
	<g>
		<path class="st1" d="M138.3,133.8l23-3.6l1.3,8.5l-4,0.6l10.3,17.8l2.2-19.8l-4.1,0.6l-1.3-8.5l21.8-3.5l1.3,8.5l-4.8,0.8
			l-7.3,35.2l1.9,16l-10.4,1.6l-2.8-15.6l-21.2-31l-4.6,0.7L138.3,133.8z"/>
		<path class="st1" d="M212.4,138.7c2.9,21.3-3.1,27.7-13.1,29.3c-1.6,0.2-3.3,0.3-5,0.3l-1.4-8.7c0.7,0,1.4-0.1,2.1-0.2
			c5.4-0.9,7.5-7.1,6-18.8l-1.1-7.9l-5.3,0.8l-1.3-8.5l44.2-7l1.3,8.5l-5.1,0.8l4,25.2l5.1-0.8l1.3,8.5l-22.7,3.6l-1.3-8.5l5.1-0.8
			l-4-25.2l-9.9,1.6L212.4,138.7z"/>
		<path class="st1" d="M266.8,147.9l3.5-0.6l1.3,8.5l-21.1,3.3l-1.3-8.5l5.1-0.8l-4-25.2l-5.1,0.8l-1.3-8.5l21.1-3.3l1.3,8l-3.5,0.6
			L266.8,147.9z M272.8,120.8l-2.2,0.3l-1.3-8l19.1-3l1.3,8.5l-4.7,0.7l-7.4,12.8l12.4,12.2l5.2-0.8l1.3,8.5l-12.8,2l-17.8-18.8
			L272.8,120.8z"/>
		<path class="st1" d="M342.5,132.1c-1.4,12.5-12,16-19.7,17.2c-5.6,0.9-22.8,2.4-26.2-19.1c-2.3-14.7,6-24.1,19.8-26.2
			c13-2.1,19.8,4.6,23,11.6c1.9,4,2.5,8.1,2.9,10.7l-32.1,5.1c0.6,4.1,3.7,10.8,11.9,9.5c3.6-0.6,7.2-2.8,7.7-6.7L342.5,132.1z
			 M328.3,121.2c-1.7-9-7.4-9.3-10.5-8.8c-7.5,1.2-9.2,7.5-8.7,11.8L328.3,121.2z"/>
		<path class="st1" d="M378.7,130.2l4.5-0.7l-1.5-9.4l-15.6,2.5l1.5,9.4l4.3-0.7l1.3,8.5l-22,3.5l-1.3-8.5l5.1-0.8l-4-25.2l-5.1,0.8
			l-1.3-8.5l22-3.5l1.3,8.5l-4.3,0.7l1.2,7.4l15.6-2.5l-1.2-7.4l-4.5,0.7l-1.3-8.5l22.1-3.5l1.3,8.5l-5.1,0.8l4,25.2l5.1-0.8
			l1.3,8.5l-22.1,3.5L378.7,130.2z"/>
	</g>
	<g>
		<path class="st2" d="M75.8,243.4l-12.1,32.9l-17.6,2.8l-2.2-13.6l6.8-1.1l9.9-19.8l-14.1-12.7l-5.8,0.9l-2.2-13.6l24.1-3.8
			l1.9,11.9l-3.1,0.5L75.8,243.4z M93.7,259.2l4.7-0.7l1.9,12l-23,3.6l-1.9-12l4.7-0.7l-5.6-35.6l-4.7,0.7l-1.9-11.9l23-3.6
			l1.9,11.9l-4.7,0.7L93.7,259.2z M100.9,221.6l-3.1,0.5l-1.9-11.9l24.1-3.8l2.2,13.6l-5.8,0.9l-9.5,16.4l15.6,15.7l6.8-1.1
			l2.2,13.6l-17.6,2.8l-21.7-27.5L100.9,221.6z"/>
		<path class="st2" d="M122,206l26.5-4.2l2.2,13.6L147,216l10.4,13.3l3.7-15.6l-3.1,0.5l-2.2-13.6l24.7-3.9l2.2,13.6l-5.5,0.9
			l-9.6,31.3l1.9,15.5l-14,2.6l-3.4-16l-22.5-25.9l-5.4,0.8L122,206z"/>
		<path class="st2" d="M224.8,236.8l6-0.9l-5.1-32.3l-13.5,2.1l1.8,12.8c1.3,9.9,1.5,22.2-3.5,29.2c-3.1,4.3-8.4,7.3-13.9,8.1
			c-2.4,0.4-4.7,0.6-6.9,0.5l-2.1-13.5c4.6-0.3,7.6-2.1,9.3-4.8c3-4.9,2.4-13.7,1.4-20l-1.6-9.9l-6.4,1l-2.2-13.6l57.6-9.1l2.2,13.6
			l-6,0.9l5.1,32.3l6-0.9l2.2,13.6l-28.2,4.5L224.8,236.8z"/>
		<path class="st2" d="M324.9,220.6l3.3,27.1l-14,2.2l-2.1-13l-37.4,5.9l2.1,13l-14,2.2l-5.1-26.8l6.2-1c1.1-2.5,3.4-8.2,4-15.4
			c0.5-6-0.1-11.4-1-17.1l-0.1-0.8l-6.5,1l-2.2-13.6l57.2-9.1l2.2,13.6l-6,0.9l5.1,32L324.9,220.6z M281.6,194.4l1.1,6.9
			c0.7,4.2,1.1,8.9,0.8,13.8c-0.3,5-1.3,9.1-2.7,13.1l19.6-3.1l-5.2-32.8L281.6,194.4z"/>
		<path class="st2" d="M324.2,174l54.2-8.6l3,19.1l-13.1,2.1l-0.9-5.5l-18.8,3l1.5,9.4l15.8-2.5l2,12.5l-15.8,2.5l1.6,10.3l19.6-3.1
			l-1.1-6.7l13.1-2.1l3.2,20.4l-54.9,8.7l-2.2-13.6l6-0.9l-5.1-32.3l-6,0.9L324.2,174z"/>
		<path class="st2" d="M427.2,204.8l6-0.9l-5.1-32.3l-13.5,2.1l1.8,12.8c1.3,9.9,1.5,22.2-3.5,29.2c-3.1,4.3-8.4,7.3-13.9,8.1
			c-2.4,0.4-4.7,0.6-6.9,0.5l-2.1-13.5c4.6-0.3,7.6-2.1,9.3-4.8c3-4.9,2.4-13.7,1.4-20l-1.6-9.9l-6.4,1l-2.2-13.6l57.6-9.1l2.2,13.6
			l-6,0.9l5.1,32.3l6-0.9l2.2,13.6l-28.2,4.5L427.2,204.8z"/>
		<path class="st2" d="M456.7,153l54.2-8.6l3,19.1l-13.1,2.1l-0.9-5.5l-18.8,3l1.5,9.4l15.8-2.5l2,12.5l-15.8,2.5l1.6,10.3l19.6-3.1
			l-1.1-6.7l13.1-2.1l3.2,20.4l-54.9,8.7l-2.2-13.6l6-0.9l-5.1-32.3l-6,0.9L456.7,153z"/>
		<path class="st2" d="M519,143.2l34.3-5.4c5.4-0.8,13-1.6,19,2.7c5.3,3.9,7,9.6,7.6,13.6c0.6,4.1,0.4,10.5-3.5,15.7
			c-4.4,6-12.7,7.7-17.2,8.4l-11.6,1.8l1,6.4l8.1-1.3l2,12.8l-30.4,4.8l-2.2-13.6l6-0.9l-5.1-32.3l-6,0.9L519,143.2z M545.8,168.5
			l9-1.4c5.4-0.9,9.3-3.9,8.5-9.3c-0.9-5.8-4-7.1-11.1-6l-8.8,1.4L545.8,168.5z"/>
	</g>
	<g>
		<path class="st0" d="M488.9,139c-1.7,0-3.4-0.5-4.8-1.6l-26-19.1l-30.5,10.5c-2.9,1-6.2,0.3-8.4-1.9c-2.2-2.2-3-5.4-2-8.4
			L427.3,88l-19.4-25.7c-1.9-2.5-2.2-5.8-0.8-8.6c1.4-2.8,4.2-4.5,7.3-4.5c0,0,0,0,0,0l32.2,0.2l18.5-26.4c1.8-2.6,4.9-3.9,7.9-3.4
			c3.1,0.5,5.6,2.6,6.6,5.6l9.8,30.7l30.8,9.4c3,0.9,5.2,3.4,5.7,6.5c0.5,3.1-0.8,6.2-3.3,8l-26.2,18.8l0.6,32.2
			c0.1,3.1-1.7,6-4.4,7.4C491.5,138.7,490.2,139,488.9,139z M459.5,101c1.7,0,3.4,0.5,4.8,1.6l16.1,11.8l-0.4-20
			c-0.1-2.7,1.2-5.2,3.4-6.8L499.7,76l-19.1-5.8c-2.6-0.8-4.6-2.8-5.4-5.3l-6.1-19l-11.4,16.4c-1.5,2.2-4,3.5-6.7,3.5c0,0,0,0,0,0
			l-20-0.1l12.1,16c1.6,2.1,2.1,4.9,1.2,7.5l-6.3,19l18.9-6.5C457.7,101.2,458.6,101,459.5,101z"/>
		<polygon class="st2" points="424.9,121.2 459.5,109.2 488.9,130.8 488.2,94.3 517.9,73 482.9,62.3 471.8,27.6 450.9,57.5 
			414.4,57.3 436.4,86.5 		"/>
	</g>
</g>
</svg>
