<?xml version="1.0" encoding="utf-8"?>
<!-- Generator: Adobe Illustrator 25.2.3, SVG Export Plug-In . SVG Version: 6.00 Build 0)  -->
<svg version="1.1" id="Layer_1" xmlns="http://www.w3.org/2000/svg" xmlns:xlink="http://www.w3.org/1999/xlink" x="0px" y="0px"
	 viewBox="0 0 887.2 107.3" style="enable-background:new 0 0 887.2 107.3;" xml:space="preserve">
<style type="text/css">
	.st0{fill:#461000;}
</style>
<g>
	<polygon class="st0" points="780.7,18.1 780.7,34.2 785.3,34.2 777.1,48.3 768.6,34.2 773.3,34.2 773.3,18.1 741.3,18.1 
		741.3,34.2 748.4,34.2 760.6,53.3 749.2,53.3 749.2,67.9 766.7,67.9 766.7,72.5 759.7,72.5 759.7,88.6 793.1,88.6 793.1,72.5 
		786,72.5 786,67.9 803.2,67.9 803.2,53.3 792,53.3 804,34.2 811.1,34.2 811.1,18.1 	"/>
	<path class="st0" d="M835.2,72.5h7V33.6h-10.1v11.1h-15.5V18.1h70.4v26.6h-15.5V33.6h-10.1v38.8h7v16.1h-33.4V72.5z"/>
</g>
</svg>
