<?xml version="1.0" encoding="utf-8"?>
<!-- Generator: Adobe Illustrator 25.2.3, SVG Export Plug-In . SVG Version: 6.00 Build 0)  -->
<svg version="1.1" id="Layer_1" xmlns="http://www.w3.org/2000/svg" xmlns:xlink="http://www.w3.org/1999/xlink" x="0px" y="0px"
	 viewBox="0 0 241.7 31.4" style="enable-background:new 0 0 241.7 31.4;" xml:space="preserve">
<style type="text/css">
	.st0{fill:#FFCC00;}
	.st1{fill:#552100;}
</style>
<path class="st0" d="M16.1,7.9c1.4,0,3.5,0.2,4.9,1.5c0.8,0.8,1.4,2.1,1.4,3.7c0,1.2-0.2,2.2-1.2,3.1c-0.6,0.7-1.5,1.1-2.3,1.3v0.1
	c1.3,0.2,2.4,0.8,3.1,1.5c1.2,1.2,1.3,2.5,1.3,3.6c0,2.1-0.8,3.4-1.5,4.2c-1.6,1.6-4.1,1.9-5.8,1.9H2.5V24h2.1V12.7H2.5V7.9H16.1
	 M10.3,16.1L10.3,16.1h3.8c0.7,0,1.5-0.2,1.9-0.7c0.3-0.2,0.5-0.7,0.5-1.4c0-0.7-0.3-1.1-0.6-1.3c-0.5-0.4-1.4-0.4-1.6-0.4h-4V16.1
	 M10.4,24.5h4.5c0.7,0,1.4-0.2,1.9-0.6c0.3-0.3,0.7-0.8,0.7-1.6c0-1-0.4-1.4-0.7-1.6c-0.6-0.5-1.4-0.5-2-0.5h-4.4V24.5 M16.1,5.4
	H2.5H0v2.5v4.8v2.5h2.1v6.3H0V24v4.8v2.5h2.5H16c3.2,0,5.8-0.9,7.6-2.6l0.1-0.1l0.1-0.1c1.4-1.6,2.1-3.6,2.1-5.8c0-1,0-3.3-2-5.4
	c0,0-0.1-0.1-0.1-0.1c1.1-1.4,1.2-2.9,1.2-4.1c0-2.1-0.8-4.1-2.1-5.5l0,0l0,0C21.2,6.1,18.9,5.4,16.1,5.4L16.1,5.4z"/>
<path class="st0" d="M56.7,7.9v4.8h-2.1v11.4h2.1v4.8h-9.1v-4.5h1.2V12.7h-2.1V7.9H56.7 M36.1,7.9v4.8H34v2.5h4.4
	c1.6,0,4.2,0.2,5.9,1.8c1,0.9,2,2.4,2,5c0,2.2-1.1,4-2.2,5c-1.6,1.5-4.7,1.8-6.5,1.8H26.1V24h2.1V12.7h-2.1V7.9H36.1 M33.9,24.3h3.4
	c0.4,0,1.4,0,2-0.5c0.6-0.5,0.8-1.1,0.8-1.6c0-1-0.4-1.5-0.8-1.8c-0.6-0.5-1.4-0.5-2.2-0.5h-3.2V24.3 M59.2,5.4h-2.5h-10h-2.5v2.5
	v4.8v1.2c-1.5-0.8-3.4-1.2-5.6-1.2v0V7.9V5.4h-2.5h-10h-2.5v2.5v4.8v2.5h2.1v6.3h-2.1V24v4.8v2.5h2.5h11.5c1.9,0,5.2-0.3,7.5-1.9v2
	h2.5h9.1h2.5v-2.5v-4.8v-2.5h-2.1v-6.4h2.1v-2.5V7.9V5.4L59.2,5.4z M46,15.2h0.3v0.3C46.2,15.4,46.1,15.3,46,15.2L46,15.2z"/>
<path class="st0" d="M82.7,7.9v4.8h-2.1v11.4h2.1v4.8h-9.8v-4.8h1.9V16l-7.3,12.9h-7.9v-4.8h2.1V12.7h-2.1V7.9h0.1h9.8v4.8h-2v8
	l7.3-12.8H82.7 M85.2,5.4h-2.5h-7.9h-1.5l-0.7,1.3L72,7.8V5.4h-2.5h-9.8h-0.1h-2.5v2.5v4.8v2.5h2.1v6.4h-2.1v2.5v4.8v2.5h2.5h7.9H69
	l0.7-1.3l0.7-1.3v0v2.5h2.5h9.8h2.5v-2.5v-4.8v-2.5h-2.1v-6.4h2.1v-2.5V7.9V5.4L85.2,5.4z"/>
<path class="st0" d="M103,7.9v7.9h-4.6v-3.3h-4.8V24h2.1v4.8h-9.9V24h2.1V12.7h-2.1V7.9H103 M85.8,7.9L85.8,7.9L85.8,7.9 M105.5,5.4
	H103H85.8h-0.1h-2.4v2.5v4.8v2.5h2.1v6.3h-2.1V24v4.8v2.5h2.5h9.9h2.5v-2.5V24v-2.5h-2.1v-3.2h2.3h4.6h2.5v-2.5V7.9V5.4L105.5,5.4z"
	/>
<path class="st0" d="M117.1,7.9c1.9,0,4.6,0.1,6.4,2c1.6,1.6,1.9,3.7,1.9,5.1s-0.4,3.6-2.1,5.2c-1.8,1.8-4.8,1.9-6.4,1.9h-4.1v2.2
	h2.8v4.5h-10.7V24h2.1V12.7h-2.1V7.9h0.1H117.1 M112.8,18.1h3.2c1.9,0,3.4-0.8,3.4-2.7c0-2-1-2.7-3.5-2.7h-3.1V18.1 M117.1,5.4H105
	h-0.1h-2.5v2.5v4.8v2.5h2.1v6.3h-2.1V24v4.8v2.5h2.5h10.7h2.5v-2.5v-4.2c2.2-0.1,5-0.6,6.9-2.6c2.6-2.4,2.9-5.7,2.9-7
	c0-2.8-0.9-5.1-2.6-6.8C122.7,5.4,118.9,5.4,117.1,5.4L117.1,5.4z"/>
<path class="st0" d="M158.1,7.9v4.8H156v11.4h2.1v4.8H149v-4.5h1.2V12.7h-2.1V7.9h0H158.1 M137.4,7.9v4.8h-2.1v2.5h4.4
	c1.6,0,4.2,0.2,5.9,1.8c1,0.9,2,2.4,2,5c0,2.2-1.1,4-2.2,5c-1.6,1.5-4.7,1.8-6.5,1.8h-11.4V24h2.1V12.7h-2.1V7.9H137.4 M135.3,24.3
	h3.4c0.4,0,1.4,0,2-0.5s0.8-1.1,0.8-1.6c0-1-0.4-1.5-0.8-1.8c-0.6-0.5-1.4-0.5-2.2-0.5h-3.2V24.3 M127.5,7.9L127.5,7.9L127.5,7.9
	 M160.6,5.4h-2.5h-10h-2.5l0,2.5l0,4.8V14c-1.5-0.8-3.4-1.2-5.7-1.3v0V7.9V5.4h-2.5h-9.9h-0.1H125v2.5v4.8v2.5h2.1v6.3H125V24v4.8
	v2.5h2.5h11.4c1.9,0,5.3-0.3,7.6-2v2.1h2.5h9.1h2.5v-2.5v-4.8v-2.5h-2.1v-6.4h2.1v-2.5V7.9V5.4L160.6,5.4z M147.3,15.2h0.4v0.4
	C147.6,15.4,147.5,15.3,147.3,15.2L147.3,15.2z"/>
<path class="st0" d="M174.7,7.9c1.4,0,3.5,0.2,4.9,1.5c0.8,0.8,1.4,2.1,1.4,3.7c0,1.2-0.2,2.2-1.2,3.1c-0.6,0.7-1.5,1.1-2.3,1.3v0.1
	c1.3,0.2,2.4,0.8,3.1,1.5c1.2,1.2,1.3,2.5,1.3,3.6c0,2.1-0.8,3.4-1.5,4.2c-1.6,1.6-4.1,1.9-5.8,1.9H161V24h2.1V12.7H161V7.9h0.1
	H174.7 M168.8,16.1h0.1h3.7c0.7,0,1.5-0.2,1.9-0.7c0.3-0.2,0.5-0.7,0.5-1.4c0-0.7-0.3-1.1-0.6-1.3c-0.5-0.4-1.4-0.4-1.6-0.4h-4V16.1
	 M168.9,24.5h4.5c0.7,0,1.4-0.2,1.9-0.6c0.3-0.3,0.7-0.8,0.7-1.6c0-1-0.4-1.4-0.7-1.6c-0.6-0.5-1.4-0.5-2-0.5h-4.4V24.5 M174.7,5.4
	h-13.6H161h-2.5v2.5v4.8v2.5h2.1v6.3h-2.1V24v4.8v2.5h2.5h13.6c3.2,0,5.8-0.9,7.6-2.6l0.1-0.1l0.1-0.1c1.4-1.6,2.1-3.6,2.1-5.8
	c0-1,0-3.3-2-5.4c0,0-0.1-0.1-0.1-0.1c1.1-1.4,1.2-2.9,1.2-4.1c0-2.1-0.8-4.1-2.1-5.5l0,0l0,0C179.8,6.1,177.5,5.4,174.7,5.4
	L174.7,5.4z"/>
<path class="st0" d="M196.8,7.9l6,16.2h2.1v4.8h-9.2v-4.3h1.5l-0.4-1.5h-6.1l-0.5,1.5h1.8v4.3h-9v-4.8h2.1l4.2-11.5h-2l0-4.7H196.8
	 M191.6,19.3h3.9l-2-6.5L191.6,19.3 M187.3,7.9L187.3,7.9L187.3,7.9 M187.3,7.9L187.3,7.9 M198.5,5.4h-1.7h-9.5h-2.5l0,2.5l0,4.7
	l0,2.5h0.9l-2.4,6.5H183h-2.5v2.5v4.8v2.5h2.5h9h2.5h1.2h9.2h2.5v-2.5v-4.8v-2.5h-2.5h-0.4L199.1,7L198.5,5.4L198.5,5.4z"/>
<path class="st0" d="M224.7,2.5c-0.1,4-4,4.6-7.2,4.6c-3,0-7-0.7-7-4.6h4.9c0,1.4,1,1.9,2.1,1.9s2.1-0.5,2.2-1.9H224.7 M229.2,7.9
	v4.8h-2.1v11.4h2.1v4.8h-9.8v-4.8h1.9V16L214,28.9h-7.9v-4.8h2.1V12.7h-2.1V7.9h9.8v4.8H214v8l7.3-12.8H229.2 M227.3,0h-2.6h-5h-2.3
	l0,0l-2,0h-4.9H208v2.5c0,0.7,0.1,1.8,0.6,2.9h-2.5h-2.5v2.5v4.8v2.5h2.1v6.4h-2.1v2.5v4.8v2.5h2.5h7.9h1.5l0.7-1.3l0.7-1.3v0v2.5
	h2.5h9.8h2.5v-2.5v-4.8v-2.5h-2.1v-6.4h2.1v-2.5V7.9V5.4h-2.5h-2.6c0.5-1,0.6-2,0.6-2.8L227.3,0L227.3,0z"/>
<path class="st0" d="M239.2,7.9v5.3l-1.5,8.2h-2.9l-1.5-8.2V7.9H239.2 M239,23.7v5.2h-5.4v-5.2H239 M241.7,5.4h-2.5h-5.9h-2.5v2.5
	v5.3v0.2l0,0.2l1.4,7.6h-1.1v2.5v5.2v2.5h2.5h5.4h2.5v-2.5v-5.2v-2.5h-1.2l1.4-7.6l0-0.2v-0.2V7.9V5.4L241.7,5.4z"/>
<g>
	<g>
		<path class="st1" d="M2.5,7.9h13.6c1.4,0,3.5,0.2,4.9,1.5c0.8,0.8,1.4,2.1,1.4,3.7c0,1.2-0.2,2.2-1.2,3.1
			c-0.6,0.7-1.5,1.1-2.3,1.3v0.1c1.3,0.2,2.4,0.8,3.1,1.5c1.2,1.2,1.3,2.5,1.3,3.6c0,2.1-0.8,3.4-1.5,4.2c-1.6,1.6-4.1,1.9-5.8,1.9
			H2.5V24h2.1V12.7H2.5V7.9z M10.4,16.1h3.7c0.7,0,1.5-0.2,1.9-0.7c0.3-0.2,0.5-0.7,0.5-1.4s-0.3-1.1-0.6-1.3
			c-0.5-0.4-1.4-0.4-1.6-0.4h-4v3.8H10.4z M10.4,24.5h4.5c0.7,0,1.4-0.2,1.9-0.6c0.3-0.3,0.7-0.8,0.7-1.6c0-1-0.4-1.4-0.7-1.6
			c-0.6-0.5-1.4-0.5-2-0.5h-4.4V24.5z"/>
	</g>
	<g>
		<path class="st1" d="M26.1,7.9h10v4.8H34v2.5h4.4c1.6,0,4.2,0.2,5.9,1.8c1,0.9,2,2.4,2,5c0,2.2-1.1,4-2.2,5
			c-1.6,1.5-4.7,1.8-6.5,1.8H26.1V24h2.1V12.7h-2.1V7.9z M33.9,24.3h3.4c0.4,0,1.4,0,2-0.5s0.8-1.1,0.8-1.6c0-1-0.4-1.5-0.8-1.8
			c-0.6-0.5-1.4-0.5-2.2-0.5h-3.2C33.9,19.9,33.9,24.3,33.9,24.3z M46.7,7.9h10v4.8h-2.1v11.4h2.1v4.8h-9.1v-4.5h1.2V12.7h-2.1V7.9z
			"/>
	</g>
	<g>
		<path class="st1" d="M59.7,7.9h9.8v4.8h-2v8l7.3-12.8h7.9v4.8h-2.1v11.4h2.1v4.8h-9.8v-4.8h1.9V16l-7.3,12.9h-7.9v-4.8h2.1V12.7
			h-2.1L59.7,7.9L59.7,7.9z"/>
	</g>
	<g>
		<path class="st1" d="M85.7,7.9H103v7.9h-4.6v-3.3h-4.8V24h2.1v4.8h-9.9V24h2.1V12.7h-2.1L85.7,7.9L85.7,7.9z"/>
	</g>
	<g>
		<path class="st1" d="M105,7.9h12.1c1.9,0,4.6,0.1,6.4,2c1.6,1.6,1.9,3.7,1.9,5.1s-0.4,3.6-2.1,5.2c-1.8,1.8-4.8,1.9-6.4,1.9h-4.1
			v2.2h2.8v4.5h-10.7V24h2.1V12.7h-2.1L105,7.9L105,7.9z M112.8,18.1h3.2c1.9,0,3.4-0.8,3.4-2.7c0-2-1-2.7-3.5-2.7h-3.1V18.1z"/>
	</g>
	<g>
		<path class="st1" d="M127.4,7.9h10v4.8h-2.1v2.5h4.4c1.6,0,4.2,0.2,5.9,1.8c1,0.9,2,2.4,2,5c0,2.2-1.1,4-2.2,5
			c-1.6,1.5-4.7,1.8-6.5,1.8h-11.4V24h2.1V12.7h-2.1L127.4,7.9L127.4,7.9z M135.3,24.3h3.4c0.4,0,1.4,0,2-0.5s0.8-1.1,0.8-1.6
			c0-1-0.4-1.5-0.8-1.8c-0.6-0.5-1.4-0.5-2.2-0.5h-3.2V24.3z M148.1,7.9h10v4.8H156v11.4h2.1v4.8H149v-4.5h1.2V12.7h-2.1L148.1,7.9
			L148.1,7.9z"/>
	</g>
	<g>
		<path class="st1" d="M161.1,7.9h13.6c1.4,0,3.5,0.2,4.9,1.5c0.8,0.8,1.4,2.1,1.4,3.7c0,1.2-0.2,2.2-1.2,3.1
			c-0.6,0.7-1.5,1.1-2.3,1.3v0.1c1.3,0.2,2.4,0.8,3.1,1.5c1.2,1.2,1.3,2.5,1.3,3.6c0,2.1-0.8,3.4-1.5,4.2c-1.6,1.6-4.1,1.9-5.8,1.9
			H161V24h2.1V12.7H161V7.9H161.1z M168.9,16.1h3.7c0.7,0,1.5-0.2,1.9-0.7c0.3-0.2,0.5-0.7,0.5-1.4s-0.3-1.1-0.6-1.3
			c-0.5-0.4-1.4-0.4-1.6-0.4h-4v3.8H168.9z M168.9,24.5h4.5c0.7,0,1.4-0.2,1.9-0.6c0.3-0.3,0.7-0.8,0.7-1.6c0-1-0.4-1.4-0.7-1.6
			c-0.6-0.5-1.4-0.5-2-0.5h-4.4V24.5z"/>
	</g>
	<g>
		<path class="st1" d="M187.3,7.9h9.5l6,16.2h2.1v4.8h-9.2v-4.3h1.5l-0.4-1.5h-6.1l-0.5,1.5h1.8v4.3h-9v-4.8h2.1l4.2-11.5h-2
			L187.3,7.9L187.3,7.9z M191.6,19.3h3.9l-2-6.5L191.6,19.3z"/>
	</g>
	<g>
		<path class="st1" d="M206.1,7.9h9.8v4.8H214v8l7.3-12.8h7.9v4.8h-2.1v11.4h2.1v4.8h-9.8v-4.8h1.9V16L214,28.9h-7.9v-4.8h2.1V12.7
			h-2.1V7.9z M224.7,2.5c-0.1,4-4,4.6-7.2,4.6c-3,0-7-0.7-7-4.6h4.9c0,1.4,1,1.9,2.1,1.9s2.1-0.5,2.2-1.9H224.7z"/>
	</g>
	<g>
		<path class="st1" d="M239.2,7.9v5.3l-1.5,8.2h-2.9l-1.5-8.2V7.9H239.2z M233.6,23.7h5.4v5.2h-5.4V23.7z"/>
	</g>
</g>
</svg>
