<?xml version="1.0" encoding="utf-8"?>
<!-- Generator: Adobe Illustrator 25.2.3, SVG Export Plug-In . SVG Version: 6.00 Build 0)  -->
<svg version="1.1" id="Layer_1" xmlns="http://www.w3.org/2000/svg" xmlns:xlink="http://www.w3.org/1999/xlink" x="0px" y="0px"
	 viewBox="0 0 294.4 37" style="enable-background:new 0 0 294.4 37;" xml:space="preserve">
<style type="text/css">
	.st0{fill:#FFCC00;}
	.st1{fill:#552100;}
</style>
<path class="st0" d="M193.6,7.9v4.8h-2.1v11.4h2.1v4.8h-9.8v-4.8h1.9V16l-7.3,12.9h-7.9v-4.8h2.1V12.7h-2.1V7.9h9.8v4.8h-1.9v8
	l7.3-12.8H193.6 M196.1,5.4h-2.5h-7.9h-1.5l-0.7,1.3l-0.7,1.3v0V5.4h-2.5h-9.8H168v2.5v4.8v2.5h2.1v6.4H168v2.5v4.8v2.5h2.5h7.9h1.5
	l0.7-1.3l0.7-1.3v0v2.5h2.5h9.8h2.5v-2.5v-4.8v-2.5H194v-6.4h2.1v-2.5V7.9V5.4L196.1,5.4z"/>
<path class="st0" d="M213.9,7.9v7.9h-4.6v-3.3h-4.8V24h2.1v4.8h-10V24h2.1V12.7h-2.1V7.9H213.9 M216.4,5.4h-2.5h-17.3h-2.5v2.5v4.8
	v2.5h2.1v6.3h-2.1V24v4.8v2.5h2.5h10h2.5v-2.5V24v-2.5H207v-3.2h2.3h4.6h2.5v-2.5V7.9V5.4L216.4,5.4z"/>
<path class="st0" d="M227.9,7.9c1.9,0,4.6,0.1,6.4,2c1.6,1.6,1.9,3.7,1.9,5.1s-0.4,3.6-2.1,5.2c-1.8,1.8-4.8,1.9-6.4,1.9h-4.1v2.2
	h2.8v4.5h-10.7V24h2.1V12.7h-2.1V7.9h0.1H227.9 M223.6,18.1L223.6,18.1h3.2c1.9,0,3.4-0.8,3.4-2.7c0-2-1-2.7-3.5-2.7h-3.1V18.1
	 M227.9,5.4h-12.1h-0.1h-2.5v2.5v4.8v2.5h2.1v6.3h-2.1V24v4.8v2.5h2.5h10.7h2.5v-2.5v-4.2c2.2-0.1,5-0.6,6.9-2.6
	c2.6-2.4,2.9-5.7,2.9-7c0-2.8-0.9-5.1-2.6-6.8C233.5,5.4,229.7,5.4,227.9,5.4L227.9,5.4z"/>
<path class="st0" d="M249.7,7.9l6,16.2h2.1v4.8h-9.3v-4.3h1.5l-0.4-1.5h-6.1l-0.5,1.5h1.8v4.3h-9v-4.8h2.1l4.2-11.5h-2V7.9h0.1
	H249.7 M244.6,19.3h3.9l-2-6.5L244.6,19.3 M251.4,5.4h-1.7h-9.5h-0.1h-2.5v2.5v4.7v2.5h0.9l-2.4,6.5h-0.4h-2.5v2.5v4.8v2.5h2.5h9
	h2.5h1.2h9.3h2.5v-2.5v-4.8v-2.5h-2.5h-0.4L252,7L251.4,5.4L251.4,5.4z"/>
<path class="st0" d="M277.6,2.5c-0.1,4-4,4.6-7.2,4.6c-3,0-7-0.7-7-4.6h4.9c0,1.4,1,1.9,2.1,1.9s2.1-0.5,2.2-1.9H277.6 M282.1,7.9
	v4.8H280v11.4h2.1v4.8h-9.8v-4.8h1.9V16l-7.3,12.9H259v-4.8h2.1V12.7H259V7.9h9.8v4.8h-1.9v8l7.3-12.8H282.1 M280.2,0h-2.6h-5h-2.3
	l0,0l-2,0h-4.9h-2.5v2.5c0,0.7,0.1,1.8,0.6,2.9H259h-2.5v2.5v4.8v2.5h2.1v6.4h-2.1v2.5v4.8v2.5h2.5h7.9h1.5l0.7-1.3l0.7-1.3v0v2.5
	h2.5h9.8h2.5v-2.5v-4.8v-2.5h-2.1v-6.4h2.1v-2.5V7.9V5.4h-2.5h-2.6c0.5-1,0.6-2,0.6-2.8L280.2,0L280.2,0z"/>
<path class="st0" d="M291.9,23.5v4.3c0,1.8-0.2,3.8-1.6,5.2c-1.4,1.4-3.3,1.5-4,1.5h-0.1v-2.7h0.2c0.8,0,1.6-0.2,2-0.7
	c0.6-0.5,0.8-1.5,0.7-2.2h-3v-5.4h0.1H291.9 M294.4,21h-2.5h-5.7h-0.1h-2.5v2.5v5.4v2.5h0.1v0.4v2.7V37h2.5h0.1
	c1.3,0,3.8-0.3,5.8-2.2c2.1-2.1,2.3-4.8,2.3-7v-4.3V21L294.4,21z"/>
<g>
	<g>
		<path class="st1" d="M170.5,7.9h9.8v4.8h-1.9v8l7.3-12.8h7.9v4.8h-2.1v11.4h2.1v4.8h-9.8v-4.8h1.9V16l-7.3,12.9h-7.9v-4.8h2.1
			V12.7h-2.1V7.9z"/>
	</g>
	<g>
		<path class="st1" d="M196.6,7.9h17.3v7.9h-4.6v-3.3h-4.8V24h2.1v4.8h-10V24h2.1V12.7h-2.1V7.9z"/>
	</g>
	<g>
		<path class="st1" d="M215.8,7.9h12.1c1.9,0,4.6,0.1,6.4,2c1.6,1.6,1.9,3.7,1.9,5.1s-0.4,3.6-2.1,5.2c-1.8,1.8-4.8,1.9-6.4,1.9
			h-4.1v2.2h2.8v4.5h-10.7V24h2.1V12.7h-2.1V7.9H215.8z M223.6,18.1h3.2c1.9,0,3.4-0.8,3.4-2.7c0-2-1-2.7-3.5-2.7h-3.1L223.6,18.1
			L223.6,18.1z"/>
	</g>
	<g>
		<path class="st1" d="M240.2,7.9h9.5l6,16.2h2.1v4.8h-9.3v-4.3h1.5l-0.4-1.5h-6.1l-0.5,1.5h1.8v4.3h-9v-4.8h2.1l4.2-11.5h-2
			L240.2,7.9L240.2,7.9z M244.6,19.3h3.9l-2-6.5L244.6,19.3z"/>
	</g>
	<g>
		<path class="st1" d="M259,7.9h9.8v4.8h-1.9v8l7.3-12.8h7.9v4.8H280v11.4h2.1v4.8h-9.8v-4.8h1.9V16l-7.3,12.9H259v-4.8h2.1V12.7
			H259V7.9z M277.6,2.5c-0.1,4-4,4.6-7.2,4.6c-3,0-7-0.7-7-4.6h4.9c0,1.4,1,1.9,2.1,1.9s2.1-0.5,2.2-1.9H277.6z"/>
	</g>
	<g>
		<path class="st1" d="M286.2,23.5h5.7v4.3c0,1.8-0.2,3.8-1.6,5.2c-1.4,1.4-3.3,1.5-4,1.5h-0.1v-2.7h0.2c0.8,0,1.6-0.2,2-0.7
			c0.6-0.5,0.8-1.5,0.7-2.2h-3L286.2,23.5L286.2,23.5z"/>
	</g>
</g>
</svg>
