<?xml version="1.0" encoding="utf-8"?>
<!-- Generator: Adobe Illustrator 25.2.3, SVG Export Plug-In . SVG Version: 6.00 Build 0)  -->
<svg version="1.1" id="Layer_1" xmlns="http://www.w3.org/2000/svg" xmlns:xlink="http://www.w3.org/1999/xlink" x="0px" y="0px"
	 viewBox="0 0 294.4 37" style="enable-background:new 0 0 294.4 37;" xml:space="preserve">
<style type="text/css">
	.st0{fill:#FFCC00;}
	.st1{fill:#552100;}
</style>
<path class="st0" d="M12.5,7.3c2.4,0,4.3,0.8,5.4,1.9L18,7.9h4.4v7.3h-5.5c-0.1-1-0.5-1.6-1-2.1c-0.8-0.9-1.8-1-2.7-1
	c-1,0-2.2,0.1-3.1,1.1c-1.5,1.5-1.6,4.5-1.6,5.2c0,2.5,0.7,4.2,1.7,5.1c0.9,0.8,1.9,1.1,3.1,1.1s2.1-0.4,2.7-0.9
	c0.7-0.6,1.1-1.5,1.2-2.5h5.7c-0.3,3.3-2.2,5.2-2.5,5.6c-2.1,2.2-4.9,2.7-7.3,2.7c-2.5,0-5.4-0.5-7.6-2.8c-1-1-3-3.4-3-8.4
	c0-4,1.2-6.7,2.7-8.2C7.4,7.8,10.3,7.3,12.5,7.3 M12.5,4.8C8.8,4.8,5.6,6,3.4,8.4C1.2,10.6,0,14.1,0,18.3c0,4.3,1.2,7.7,3.7,10.1
	C6,30.8,9.1,32,13.1,32c3.8,0,6.9-1.2,9.1-3.5l0.1-0.1l0.1-0.1l0.1-0.1c0.6-0.8,2.6-3.1,2.9-6.8l0.2-2.7h-2.7h-5.7h-2.3L14.7,21
	c0,0.4-0.2,0.7-0.3,0.9c-0.1,0.1-0.5,0.3-1.1,0.3c-0.8,0-1.1-0.2-1.4-0.5c-0.4-0.4-0.9-1.4-0.9-3.2c0-1.3,0.3-2.9,0.9-3.4l0,0l0,0
	c0.2-0.2,0.4-0.3,1.2-0.3c0.7,0,0.8,0.1,0.8,0.2l0,0.1l0.1,0.1c0.2,0.2,0.2,0.3,0.3,0.6l0.2,2.3h2.3h5.5h2.5v-2.5V7.9V5.4h-2.5H18
	h-1.7C15.1,5,13.8,4.8,12.5,4.8L12.5,4.8z"/>
<path class="st0" d="M55,7.9v4.8h-2.1v11.4H55v4.8h0.1h-9.4v-4.6h1.8V14h-0.1l-5.1,14.9h-4.2L33,14h-0.1v10.2h1.9v4.6h-9.3V24h2.1
	V12.7h-2.1V7.9h10.6l4.5,13.8h0.1l4.5-13.8H55 M57.5,5.4H55h-9.8h-1.8l-0.6,1.7l-2.2,6.7l-2.2-6.7l-0.6-1.7h-1.8H25.5H23v2.5v4.8
	v2.5h2.1v6.3H23V24v4.8v2.5h2.5h9.3h1.5l0,0.1h1.8h4.2h1.8h1.6h9.4v-2.5h2.4v-4.8v-2.5h-2.1v-6.4h2.1v-2.5V7.9V5.4L57.5,5.4z"/>
<path class="st0" d="M68.6,7.3c4.2,0,6.6,1.5,7.9,2.9c1.2,1.2,2.9,3.8,2.9,8.3c0,4-1.4,6.6-3.1,8.2c-2.3,2.2-5.2,2.8-7.8,2.8
	c-2.3,0-5.3-0.3-7.7-2.7c-1.7-1.6-3.1-4.3-3.1-8.4s1.5-6.7,3-8.2C63.2,7.7,66.5,7.3,68.6,7.3 M68.6,24.7c0.9,0,2.2-0.2,3.2-1.3
	c1.2-1.2,1.5-3.4,1.5-5.1c0-2.2-0.4-3.9-1.5-5c-0.9-1-2-1.2-3.2-1.2c-1.2,0-2.3,0.3-3.2,1.3c-1.4,1.5-1.5,4-1.5,5
	c0,1.6,0.2,3.7,1.5,5C66.3,24.4,67.5,24.7,68.6,24.7 M68.6,4.8c-3.9,0-7.3,1.3-9.7,3.6c-1.7,1.7-3.7,4.8-3.7,10
	c0,5.4,2.1,8.5,3.9,10.2c3.1,3.1,6.9,3.4,9.4,3.4c3.9,0,7.1-1.2,9.5-3.5c1.8-1.7,3.9-4.7,3.9-10c0-5.6-2.2-8.7-3.6-10
	C76.7,6.8,73.8,4.8,68.6,4.8L68.6,4.8z M68.6,22.2c-0.9,0-1.2-0.3-1.3-0.5l0,0l0,0c-0.4-0.4-0.8-1.2-0.8-3.2c0-1.5,0.3-2.7,0.8-3.3
	c0.3-0.3,0.5-0.5,1.4-0.5c1,0,1.2,0.2,1.3,0.4l0,0l0,0c0.5,0.5,0.8,1.6,0.8,3.2c0,1.8-0.4,3-0.8,3.3l0,0l0,0
	C69.8,21.9,69.4,22.2,68.6,22.2L68.6,22.2z"/>
<path class="st0" d="M102.1,7.9v7.9h-4.6v-3.3h-3v11.6h2v4.8h-9.9v-4.8h2.1V12.5h-3v3.3h-4.6V7.9H102.1 M104.6,5.4h-2.5h-21h-2.5
	v2.5v7.9v2.5h2.5h4.6h0.5v3.3h-2.1v2.5v4.8v2.5h2.5h9.9H99v-2.5v-4.8v-2.5h-2v-3.3h0.5h4.6h2.5v-2.5V7.9V5.4L104.6,5.4z"/>
<path class="st0" d="M116.1,7.9c1.9,0,4.6,0.1,6.4,2c1.6,1.6,1.9,3.7,1.9,5.1s-0.4,3.6-2.1,5.2c-1.8,1.8-4.8,1.9-6.4,1.9h-4.1v2.2
	h2.8v4.5h-10.7V24h2.1V12.7h-2.1V7.9h0.1H116.1 M111.8,18.1h3.2c1.9,0,3.4-0.8,3.4-2.7c0-2-1-2.7-3.5-2.7h-3.1V18.1 M116.1,5.4H104
	h-0.1h-2.5v2.5v4.8v2.5h2.1v6.3h-2.1V24v4.8v2.5h2.5h10.7h2.5v-2.5v-4.2c2.2-0.1,5-0.6,6.9-2.6c2.6-2.4,2.9-5.7,2.9-7
	c0-2.8-0.9-5.1-2.6-6.8C121.7,5.4,117.9,5.4,116.1,5.4L116.1,5.4z M114.3,15.2h0.6c0.5,0,0.8,0,1,0.1c0,0,0,0.1,0,0.1c0,0,0,0,0,0.1
	c-0.1,0.1-0.4,0.1-0.9,0.1h-0.7V15.2L114.3,15.2z"/>
<path class="st0" d="M149.5,7.9v4.8h-2.1v11.4h2.1v4.8h-9.8v-4.8h1.9V16l-7.3,12.9h-7.9v-4.8h2.1V12.7h-2.1V7.9h0h9.8v4.8h-1.9v8
	l7.3-12.8H149.5 M152,5.4h-2.5h-7.9h-1.5l-0.7,1.3l-0.7,1.3v0V5.4h-2.5h-9.8h-2.5l0,2.5l0,4.8l0,2.5h2.1v6.4h-2.1v2.5v4.8v2.5h2.5
	h7.9h1.5l0.7-1.3l0.7-1.3v0v2.5h2.5h9.8h2.5v-2.5v-4.8v-2.5h-2.1v-6.4h2.1v-2.5V7.9V5.4L152,5.4z"/>
<path class="st0" d="M159.4,23.5v4.3c0,1.8-0.2,3.8-1.6,5.2c-1.4,1.4-3.3,1.5-4,1.5h-0.1v-2.7h0.2c0.8,0,1.6-0.2,2-0.7
	c0.6-0.5,0.8-1.5,0.7-2.2h-3v-5.4h0.1H159.4 M161.9,21h-2.5h-5.7h-0.1h-2.5v2.5v5.4v2.5h0.1v0.4v2.7V37h2.5h0.1
	c1.3,0,3.8-0.3,5.8-2.2c2.1-2.1,2.3-4.8,2.3-7v-4.3V21L161.9,21z"/>
<g>
	<g>
		<g>
			<g>
				<path class="st1" d="M22.4,7.9v7.3h-5.5c-0.1-1-0.5-1.6-1-2.1c-0.8-0.9-1.8-1-2.7-1c-1,0-2.2,0.1-3.1,1.1
					c-1.5,1.5-1.6,4.5-1.6,5.2c0,2.5,0.7,4.2,1.7,5.1c0.9,0.8,1.9,1.1,3.1,1.1s2.1-0.4,2.7-0.9c0.7-0.6,1.1-1.5,1.2-2.5h5.7
					c-0.3,3.3-2.2,5.2-2.5,5.6c-2.1,2.2-4.9,2.7-7.3,2.7c-2.5,0-5.4-0.5-7.6-2.8c-1-1-3-3.4-3-8.4c0-4,1.2-6.7,2.7-8.2
					c2.2-2.3,5.1-2.8,7.3-2.8c2.4,0,4.3,0.8,5.4,1.9L18,7.9C18,7.9,22.4,7.9,22.4,7.9z"/>
			</g>
			<g>
				<path class="st1" d="M55.1,28.9h-9.4v-4.6h1.8V14h-0.1l-5.1,14.9h-4.2L33,14h-0.1v10.2h1.9v4.6h-9.3V24h2.1V12.7h-2.1V7.9h10.6
					l4.5,13.8h0.1l4.5-13.8H55v4.8h-2.1v11.4H55v4.8H55.1z"/>
			</g>
			<g>
				<path class="st1" d="M60.7,10.2c2.5-2.5,5.8-2.9,7.9-2.9c4.2,0,6.6,1.5,7.9,2.9c1.2,1.2,2.9,3.8,2.9,8.3c0,4-1.4,6.6-3.1,8.2
					c-2.3,2.2-5.2,2.8-7.8,2.8c-2.3,0-5.3-0.3-7.7-2.7c-1.7-1.6-3.1-4.3-3.1-8.4S59.2,11.7,60.7,10.2z M65.4,23.4
					c0.9,1,2.1,1.3,3.2,1.3c0.9,0,2.2-0.2,3.2-1.3c1.2-1.2,1.5-3.4,1.5-5.1c0-2.2-0.4-3.9-1.5-5c-0.9-1-2-1.2-3.2-1.2
					s-2.3,0.3-3.2,1.3c-1.4,1.5-1.5,4-1.5,5C63.9,20,64.1,22.1,65.4,23.4z"/>
			</g>
			<g>
				<path class="st1" d="M86.6,24.1h2.1V12.5h-3v3.3h-4.6V7.9h21v7.9h-4.6v-3.3h-3v11.6h2v4.8h-9.9V24.1z"/>
			</g>
			<g>
				<path class="st1" d="M104,7.9h12.1c1.9,0,4.6,0.1,6.4,2c1.6,1.6,1.9,3.7,1.9,5.1s-0.4,3.6-2.1,5.2c-1.8,1.8-4.8,1.9-6.4,1.9
					h-4.1v2.2h2.8v4.5h-10.7V24h2.1V12.7h-2.1L104,7.9L104,7.9z M111.8,18.1h3.2c1.9,0,3.4-0.8,3.4-2.7c0-2-1-2.7-3.5-2.7h-3.1V18.1
					z"/>
			</g>
			<g>
				<path class="st1" d="M126.4,7.9h9.8v4.8h-1.9v8l7.3-12.8h7.9v4.8h-2.1v11.4h2.1v4.8h-9.8v-4.8h1.9V16l-7.3,12.9h-7.9v-4.8h2.1
					V12.7h-2.1L126.4,7.9L126.4,7.9z"/>
			</g>
			<g>
				<path class="st1" d="M153.7,23.5h5.7v4.3c0,1.8-0.2,3.8-1.6,5.2c-1.4,1.4-3.3,1.5-4,1.5h-0.1v-2.7h0.2c0.8,0,1.6-0.2,2-0.7
					c0.6-0.5,0.8-1.5,0.7-2.2h-3v-5.4H153.7z"/>
			</g>
		</g>
	</g>
</g>
</svg>
