<?xml version="1.0" encoding="utf-8"?>
<!-- Generator: Adobe Illustrator 25.2.3, SVG Export Plug-In . SVG Version: 6.00 Build 0)  -->
<svg version="1.1" id="Layer_1" xmlns="http://www.w3.org/2000/svg" xmlns:xlink="http://www.w3.org/1999/xlink" x="0px" y="0px"
	 viewBox="0 0 289.4 31.9" style="enable-background:new 0 0 289.4 31.9;" xml:space="preserve">
<style type="text/css">
	.st0{fill:#552100;}
</style>
<g>
	<path class="st0" d="M168,5.4h9.8v4.8h-1.9v8l7.3-12.8h7.9v4.8H189v11.4h2.1v4.8h-9.8v-4.8h1.9v-8.1l-7.3,12.9H168v-4.8h2.1V10.2
		H168V5.4z"/>
	<path class="st0" d="M194.1,5.4h17.3v7.9h-4.6V10h-4.8v11.5h2.1v4.8h-10v-4.8h2.1V10.2h-2.1V5.4z"/>
	<path class="st0" d="M213.3,5.4h12.1c1.9,0,4.6,0.1,6.4,2c1.6,1.6,1.9,3.7,1.9,5.1c0,1.4-0.4,3.6-2.1,5.2c-1.8,1.8-4.8,1.9-6.4,1.9
		h-4.1v2.2h2.8v4.5h-10.7v-4.8h2.1V10.2h-2.1V5.4z M221.1,15.6h3.2c1.9,0,3.4-0.8,3.4-2.7c0-2-1-2.7-3.5-2.7h-3.1V15.6z"/>
	<path class="st0" d="M237.7,5.4h9.5l6,16.2h2.1v4.8H246v-4.3h1.5l-0.4-1.5H241l-0.5,1.5h1.8v4.3h-9v-4.8h2.1l4.2-11.5h-2V5.4z
		 M242.1,16.8h3.9l-2-6.5L242.1,16.8z"/>
	<path class="st0" d="M256.5,5.4h9.8v4.8h-1.9v8l7.3-12.8h7.9v4.8h-2.1v11.4h2.1v4.8h-9.8v-4.8h1.9v-8.1l-7.3,12.9h-7.9v-4.8h2.1
		V10.2h-2.1V5.4z M275.1,0c-0.1,4-4,4.6-7.2,4.6c-3,0-7-0.7-7-4.6h4.9c0,1.4,1,1.9,2.1,1.9s2.1-0.5,2.2-1.9H275.1z"/>
	<path class="st0" d="M283.7,21h5.7v4.3c0,1.8-0.2,3.8-1.6,5.2s-3.3,1.5-4,1.5h-0.1v-2.7h0.2c0.8,0,1.6-0.2,2-0.7
		c0.6-0.5,0.8-1.5,0.7-2.2h-3V21z"/>
</g>
</svg>
