<?xml version="1.0" encoding="utf-8"?>
<!-- Generator: Adobe Illustrator 25.2.3, SVG Export Plug-In . SVG Version: 6.00 Build 0)  -->
<svg version="1.1" id="Layer_1" xmlns="http://www.w3.org/2000/svg" xmlns:xlink="http://www.w3.org/1999/xlink" x="0px" y="0px"
	 viewBox="0 0 289.4 31.9" style="enable-background:new 0 0 289.4 31.9;" xml:space="preserve">
<style type="text/css">
	.st0{fill:#552100;}
</style>
<g>
	<g>
		<path class="st0" d="M19.9,5.4v7.3h-5.5c-0.1-1-0.5-1.6-1-2.1c-0.8-0.9-1.8-1-2.7-1c-1,0-2.2,0.1-3.1,1.1
			c-1.5,1.5-1.6,4.5-1.6,5.2c0,2.5,0.7,4.2,1.7,5.1c0.9,0.8,1.9,1.1,3.1,1.1c1.2,0,2.1-0.4,2.7-0.9c0.7-0.6,1.1-1.5,1.2-2.5h5.7
			c-0.3,3.3-2.2,5.2-2.5,5.6C15.8,26.5,13,27,10.6,27c-2.5,0-5.4-0.5-7.6-2.8C2,23.2,0,20.8,0,15.8c0-4,1.2-6.7,2.7-8.2
			C4.9,5.3,7.8,4.8,10,4.8c2.4,0,4.3,0.8,5.4,1.9l0.1-1.3H19.9z"/>
		<path class="st0" d="M52.6,26.4h-9.4v-4.6H45V11.5h-0.1l-5.1,14.9h-4.2l-5.1-14.9h-0.1v10.2h1.9v4.6H23v-4.8h2.1V10.2H23V5.4h10.6
			l4.5,13.8h0.1l4.5-13.8h9.8v4.8h-2.1v11.4h2.1V26.4z"/>
		<path class="st0" d="M58.2,7.7c2.5-2.5,5.8-2.9,7.9-2.9c4.2,0,6.6,1.5,7.9,2.9c1.2,1.2,2.9,3.8,2.9,8.3c0,4-1.4,6.6-3.1,8.2
			c-2.3,2.2-5.2,2.8-7.8,2.8c-2.3,0-5.3-0.3-7.7-2.7c-1.7-1.6-3.1-4.3-3.1-8.4S56.7,9.2,58.2,7.7z M62.9,20.9c0.9,1,2.1,1.3,3.2,1.3
			c0.9,0,2.2-0.2,3.2-1.3c1.2-1.2,1.5-3.4,1.5-5.1c0-2.2-0.4-3.9-1.5-5c-0.9-1-2-1.2-3.2-1.2c-1.2,0-2.3,0.3-3.2,1.3
			c-1.4,1.5-1.5,4-1.5,5C61.4,17.5,61.6,19.6,62.9,20.9z"/>
		<path class="st0" d="M84.1,21.6h2.1V10h-3v3.3h-4.6V5.4h21v7.9h-4.6V10h-3v11.6H94v4.8h-9.9V21.6z"/>
		<path class="st0" d="M101.5,5.4h12.1c1.9,0,4.6,0.1,6.4,2c1.6,1.6,1.9,3.7,1.9,5.1c0,1.4-0.4,3.6-2.1,5.2
			c-1.8,1.8-4.8,1.9-6.4,1.9h-4.1v2.2h2.8v4.5h-10.7v-4.8h2.1V10.2h-2.1V5.4z M109.3,15.6h3.2c1.9,0,3.4-0.8,3.4-2.7
			c0-2-1-2.7-3.5-2.7h-3.1V15.6z"/>
		<path class="st0" d="M123.9,5.4h9.8v4.8h-1.9v8l7.3-12.8h7.9v4.8h-2.1v11.4h2.1v4.8h-9.8v-4.8h1.9v-8.1l-7.3,12.9h-7.9v-4.8h2.1
			V10.2h-2.1V5.4z"/>
		<path class="st0" d="M151.2,21h5.7v4.3c0,1.8-0.2,3.8-1.6,5.2s-3.3,1.5-4,1.5h-0.1v-2.7h0.2c0.8,0,1.6-0.2,2-0.7
			c0.6-0.5,0.8-1.5,0.7-2.2h-3V21z"/>
	</g>
</g>
</svg>
