<?xml version="1.0" encoding="utf-8"?>
<!-- Generator: Adobe Illustrator 25.2.3, SVG Export Plug-In . SVG Version: 6.00 Build 0)  -->
<svg version="1.1" id="Layer_1" xmlns="http://www.w3.org/2000/svg" xmlns:xlink="http://www.w3.org/1999/xlink" x="0px" y="0px"
	 viewBox="0 0 456.3 61.3" style="enable-background:new 0 0 456.3 61.3;" xml:space="preserve">
<style type="text/css">
	.st0{fill:none;stroke:#FFCC00;stroke-width:7;stroke-miterlimit:10;}
	.st1{fill:#552100;}
</style>
<g>
	<path class="st0" d="M192.7,16.7c4.2-4.3,9.8-5,13.4-5c7.1,0,11.2,2.5,13.5,4.9c2.1,2.1,5,6.5,5,14.2c0,6.8-2.3,11.2-5.2,14
		c-3.9,3.8-8.9,4.7-13.2,4.7c-4,0-9-0.6-13.2-4.6c-2.9-2.8-5.3-7.4-5.3-14.3C187.8,23.5,190.3,19.1,192.7,16.7z M200.7,39
		c1.6,1.8,3.6,2.1,5.5,2.1c1.6,0,3.7-0.4,5.5-2.1c2-2.1,2.5-5.7,2.5-8.6c0-3.7-0.8-6.7-2.5-8.5c-1.6-1.6-3.5-2.1-5.5-2.1
		c-2.1,0-4,0.6-5.5,2.1c-2.3,2.5-2.5,6.7-2.5,8.6C198.3,33.2,198.6,36.8,200.7,39z"/>
	<path class="st0" d="M227.2,12.7h16.7v8.2h-3.3v13.6l12.5-21.7h13.4v8.2h-3.6v19.4h3.6v8.2h-16.7v-8.2h3.3V26.4l-12.5,22h-13.4
		v-8.2h3.6V20.8h-3.6V12.7z M258.9,3.5c-0.2,6.7-6.8,7.8-12.2,7.8c-5.1,0-11.9-1.1-11.9-7.8h8.4c0,2.4,1.8,3.3,3.6,3.3
		c1.8,0,3.6-0.8,3.7-3.3H258.9z"/>
	<path class="st0" d="M293.6,40.2h3.1v-6.6h-11.8v6.6h3.1v8.2h-16.5v-8.2h3.6V20.8h-3.6v-8.2H288v8.2h-3.1v5h11.8v-5h-3.1v-8.2H310
		v8.2h-3.6v19.4h3.6v8.2h-16.5V40.2z"/>
	<path class="st0" d="M319.4,12.7h16.1l10.2,27.5h3.6v8.2h-15.7v-7.3h2.6l-0.8-2.6H325l-0.8,2.6h3.1v7.3h-15.2v-8.2h3.5l7.2-19.6
		h-3.4V12.7z M326.8,32.1h6.7l-3.4-11.1L326.8,32.1z"/>
	<path class="st0" d="M353.4,39.2h9.6v7.3c0,3.1-0.4,6.5-2.7,8.8c-2.3,2.3-5.6,2.5-6.8,2.5h-0.2v-4.6h0.3c1.4,0,2.7-0.4,3.5-1.1
		c1-0.9,1.4-2.5,1.3-3.8h-5V39.2z"/>
</g>
<g>
	<path class="st1" d="M192.7,16.7c4.2-4.3,9.8-5,13.4-5c7.1,0,11.2,2.5,13.5,4.9c2.1,2.1,5,6.5,5,14.2c0,6.8-2.3,11.2-5.2,14
		c-3.9,3.8-8.9,4.7-13.2,4.7c-4,0-9-0.6-13.2-4.6c-2.9-2.8-5.3-7.4-5.3-14.3C187.8,23.5,190.3,19.1,192.7,16.7z M200.7,39
		c1.6,1.8,3.6,2.1,5.5,2.1c1.6,0,3.7-0.4,5.5-2.1c2-2.1,2.5-5.7,2.5-8.6c0-3.7-0.8-6.7-2.5-8.5c-1.6-1.6-3.5-2.1-5.5-2.1
		c-2.1,0-4,0.6-5.5,2.1c-2.3,2.5-2.5,6.7-2.5,8.6C198.3,33.2,198.6,36.8,200.7,39z"/>
	<path class="st1" d="M227.2,12.7h16.7v8.2h-3.3v13.6l12.5-21.7h13.4v8.2h-3.6v19.4h3.6v8.2h-16.7v-8.2h3.3V26.4l-12.5,22h-13.4
		v-8.2h3.6V20.8h-3.6V12.7z M258.9,3.5c-0.2,6.7-6.8,7.8-12.2,7.8c-5.1,0-11.9-1.1-11.9-7.8h8.4c0,2.4,1.8,3.3,3.6,3.3
		c1.8,0,3.6-0.8,3.7-3.3H258.9z"/>
	<path class="st1" d="M293.6,40.2h3.1v-6.6h-11.8v6.6h3.1v8.2h-16.5v-8.2h3.6V20.8h-3.6v-8.2H288v8.2h-3.1v5h11.8v-5h-3.1v-8.2H310
		v8.2h-3.6v19.4h3.6v8.2h-16.5V40.2z"/>
	<path class="st1" d="M319.4,12.7h16.1l10.2,27.5h3.6v8.2h-15.7v-7.3h2.6l-0.8-2.6H325l-0.8,2.6h3.1v7.3h-15.2v-8.2h3.5l7.2-19.6
		h-3.4V12.7z M326.8,32.1h6.7l-3.4-11.1L326.8,32.1z"/>
	<path class="st1" d="M353.4,39.2h9.6v7.3c0,3.1-0.4,6.5-2.7,8.8c-2.3,2.3-5.6,2.5-6.8,2.5h-0.2v-4.6h0.3c1.4,0,2.7-0.4,3.5-1.1
		c1-0.9,1.4-2.5,1.3-3.8h-5V39.2z"/>
</g>
</svg>
