<?xml version="1.0" encoding="utf-8"?>
<!-- Generator: Adobe Illustrator 25.2.3, SVG Export Plug-In . SVG Version: 6.00 Build 0)  -->
<svg version="1.1" id="Layer_1" xmlns="http://www.w3.org/2000/svg" xmlns:xlink="http://www.w3.org/1999/xlink" x="0px" y="0px"
	 viewBox="0 0 456.3 61.3" style="enable-background:new 0 0 456.3 61.3;" xml:space="preserve">
<style type="text/css">
	.st0{fill:none;stroke:#FFCC00;stroke-width:7;stroke-miterlimit:10;}
	.st1{fill:#552100;}
</style>
<g>
	<g>
		<g>
			<g>
				<polygon class="st0" points="36.2,40.2 27.7,30.1 35.3,20.8 38.8,20.8 38.8,12.7 23.4,12.7 23.4,20.1 25.5,20.1 17.6,31.1 
					24.9,40.7 22.4,40.7 22.4,48.4 34.5,48.4 34.5,56.1 43,56.1 43.5,40.2 				"/>
				<polygon class="st0" points="16.9,20.1 19.6,20.1 19.6,12.7 3.5,12.7 3.5,20.8 7.1,20.8 7.1,40.2 3.5,40.2 3.5,48.4 19.5,48.4 
					19.5,40.7 16.9,40.7 				"/>
			</g>
			<path class="st0" d="M54.3,12.7h16.1l10.2,27.5h3.6v8.2H68.5v-7.3h2.6l-0.8-2.6H59.9l-0.8,2.6h3.1v7.3H46.9v-8.2h3.5l7.2-19.6
				h-3.4V12.7z M61.7,32.1h6.7L65,21.1L61.7,32.1z"/>
			<path class="st0" d="M86.2,12.7h20.6c3.2,0,7.7,0.3,10.9,3.4c2.8,2.8,3.2,6.3,3.2,8.7c0,2.4-0.7,6.2-3.5,8.9
				c-3.1,3.1-8.2,3.3-10.9,3.3h-6.9v3.8h4.8v7.6H86.2v-8.2h3.6V20.8h-3.6V12.7z M99.6,30h5.4c3.3,0,5.8-1.4,5.8-4.6
				c0-3.5-1.7-4.5-6-4.5h-5.2V30z"/>
			<path class="st0" d="M124.2,12.7h16.1l10.2,27.5h3.6v8.2h-15.7v-7.3h2.6l-0.8-2.6h-10.4l-0.8,2.6h3.1v7.3h-15.2v-8.2h3.5
				l7.2-19.6h-3.4V12.7z M131.6,32.1h6.7l-3.4-11.1L131.6,32.1z"/>
			<path class="st0" d="M158.2,39.2h9.6v7.3c0,3.1-0.4,6.5-2.7,8.8c-2.3,2.3-5.6,2.5-6.8,2.5h-0.2v-4.6h0.3c1.4,0,2.7-0.4,3.5-1.1
				c1-0.9,1.4-2.5,1.3-3.8h-5V39.2z"/>
		</g>
	</g>
	<g>
		<g>
			<g>
				<polygon class="st1" points="36.2,40.2 27.7,30.1 35.3,20.8 38.8,20.8 38.8,12.7 23.4,12.7 23.4,20.1 25.5,20.1 17.6,31.1 
					24.9,40.7 22.4,40.7 22.4,48.4 34.5,48.4 34.5,56.1 43,56.1 43.5,40.2 				"/>
				<polygon class="st1" points="16.9,20.1 19.6,20.1 19.6,12.7 3.5,12.7 3.5,20.8 7.1,20.8 7.1,40.2 3.5,40.2 3.5,48.4 19.5,48.4 
					19.5,40.7 16.9,40.7 				"/>
			</g>
			<path class="st1" d="M54.3,12.7h16.1l10.2,27.5h3.6v8.2H68.5v-7.3h2.6l-0.8-2.6H59.9l-0.8,2.6h3.1v7.3H46.9v-8.2h3.5l7.2-19.6
				h-3.4V12.7z M61.7,32.1h6.7L65,21.1L61.7,32.1z"/>
			<path class="st1" d="M86.2,12.7h20.6c3.2,0,7.7,0.3,10.9,3.4c2.8,2.8,3.2,6.3,3.2,8.7c0,2.4-0.7,6.2-3.5,8.9
				c-3.1,3.1-8.2,3.3-10.9,3.3h-6.9v3.8h4.8v7.6H86.2v-8.2h3.6V20.8h-3.6V12.7z M99.6,30h5.4c3.3,0,5.8-1.4,5.8-4.6
				c0-3.5-1.7-4.5-6-4.5h-5.2V30z"/>
			<path class="st1" d="M124.2,12.7h16.1l10.2,27.5h3.6v8.2h-15.7v-7.3h2.6l-0.8-2.6h-10.4l-0.8,2.6h3.1v7.3h-15.2v-8.2h3.5
				l7.2-19.6h-3.4V12.7z M131.6,32.1h6.7l-3.4-11.1L131.6,32.1z"/>
			<path class="st1" d="M158.2,39.2h9.6v7.3c0,3.1-0.4,6.5-2.7,8.8c-2.3,2.3-5.6,2.5-6.8,2.5h-0.2v-4.6h0.3c1.4,0,2.7-0.4,3.5-1.1
				c1-0.9,1.4-2.5,1.3-3.8h-5V39.2z"/>
		</g>
	</g>
</g>
</svg>
