<?xml version="1.0" encoding="utf-8"?>
<!-- Generator: Adobe Illustrator 25.2.3, SVG Export Plug-In . SVG Version: 6.00 Build 0)  -->
<svg version="1.1" id="Layer_1" xmlns="http://www.w3.org/2000/svg" xmlns:xlink="http://www.w3.org/1999/xlink" x="0px" y="0px"
	 viewBox="0 0 456.3 61.3" style="enable-background:new 0 0 456.3 61.3;" xml:space="preserve">
<style type="text/css">
	.st0{fill:none;stroke:#FFCC00;stroke-width:7;stroke-miterlimit:10;}
	.st1{fill:#552100;}
</style>
<g>
	<polygon class="st0" points="398.9,12.7 398.9,20.8 401.3,20.8 397.1,28 392.8,20.8 395.2,20.8 395.2,12.7 379,12.7 379,20.8 
		382.6,20.8 388.7,30.5 383,30.5 383,37.9 391.8,37.9 391.8,40.2 388.3,40.2 388.3,48.4 405.2,48.4 405.2,40.2 401.6,40.2 
		401.6,37.9 410.3,37.9 410.3,30.5 404.7,30.5 410.7,20.8 414.3,20.8 414.3,12.7 	"/>
	<path class="st0" d="M426.5,40.2h3.6V20.5H425v5.6h-7.8V12.7h35.7v13.5H445v-5.6h-5.1v19.7h3.6v8.2h-16.9V40.2z"/>
</g>
<g>
	<polygon class="st1" points="398.9,12.7 398.9,20.8 401.3,20.8 397.1,28 392.8,20.8 395.2,20.8 395.2,12.7 379,12.7 379,20.8 
		382.6,20.8 388.7,30.5 383,30.5 383,37.9 391.8,37.9 391.8,40.2 388.3,40.2 388.3,48.4 405.2,48.4 405.2,40.2 401.6,40.2 
		401.6,37.9 410.3,37.9 410.3,30.5 404.7,30.5 410.7,20.8 414.3,20.8 414.3,12.7 	"/>
	<path class="st1" d="M426.5,40.2h3.6V20.5H425v5.6h-7.8V12.7h35.7v13.5H445v-5.6h-5.1v19.7h3.6v8.2h-16.9V40.2z"/>
</g>
</svg>
