<?xml version="1.0" encoding="utf-8"?>
<!-- Generator: Adobe Illustrator 25.2.3, SVG Export Plug-In . SVG Version: 6.00 Build 0)  -->
<svg version="1.1" id="Layer_1" xmlns="http://www.w3.org/2000/svg" xmlns:xlink="http://www.w3.org/1999/xlink" x="0px" y="0px"
	 viewBox="0 0 545.1 94.1" style="enable-background:new 0 0 545.1 94.1;" xml:space="preserve">
<style type="text/css">
	.st0{fill:#FFFFFF;}
	.st1{fill:#EE2E24;}
</style>
<g>
	<path class="st0" d="M498.1,94.1H47c-26,0-47-21.1-47-47v0c0-26,21.1-47,47-47l451,0c26,0,47,21.1,47,47v0
		C545.1,73,524.1,94.1,498.1,94.1z"/>
	<g>
		<path class="st1" d="M88.3,65.8H71.5v-8.4h3.3V39.1h-0.2l-9.1,26.7H58l-9.1-26.7h-0.2v18.4h3.3v8.4H35.2v-8.6H39V36.7h-3.8v-8.6
			h19.1l8,24.7h0.2l8.1-24.7h17.7v8.6h-3.8v20.5h3.8V65.8z"/>
		<path class="st1" d="M146.9,65.8H130v-8.4h3.3V39.1h-0.2l-9.1,26.7h-7.5l-9.1-26.7h-0.2v18.4h3.3v8.4H93.7v-8.6h3.8V36.7h-3.8
			v-8.6h19.1l8,24.7h0.2l8.1-24.7h17.7v8.6h-3.8v20.5h3.8V65.8z"/>
		<path class="st1" d="M183.6,28.1v12.1H175c0-4.4-4.1-5.5-6.3-5.5h-0.4c-1.1,0-2.8,0-3.9,0.8c-0.9,0.6-1.2,1.6-1.2,2.3
			c0,2.9,2.3,3.2,6.8,4.2l4.3,1c2.3,0.6,5.5,1.7,7.5,3.4c1.9,1.7,3.2,4,3.2,7.7c0,4.3-1.3,6.9-3.3,8.8c-3.9,3.6-8.7,3.9-11.9,3.9
			c-2.9,0-7.9-0.5-10.2-3.7l-0.2,2.6h-7.2V53.1h9.2c0.4,3.9,3.1,6.1,7.4,6.1c0.4,0,2.9-0.1,4.3-1c1-0.6,1.8-1.7,1.8-3.2
			c0-1-0.4-2-1.7-2.8c-0.8-0.5-3.5-1.1-4-1.3l-3.9-0.9c-3.1-0.8-6.9-1.4-9.3-3.7c-1.7-1.5-3-4.1-3-7.4c0-2.2,0.3-6,3.8-9.1
			c3.1-2.6,6.5-3,10.6-3c2,0,6.3,0.5,8.4,3.3l0.3-2.2H183.6z"/>
		<path class="st1" d="M190.2,28.1h21.8c3.4,0,8.2,0.3,11.5,3.6c2.9,2.9,3.4,6.6,3.4,9.2c0,2.6-0.8,6.5-3.7,9.4
			c-3.3,3.3-8.6,3.5-11.5,3.5h-7.3v4h5.1v8.1h-19.2v-8.6h3.8V36.7h-3.8V28.1z M204.3,46.4h5.7c3.4,0,6.1-1.5,6.1-4.9
			c0-3.7-1.8-4.8-6.3-4.8h-5.6V46.4z"/>
		<path class="st1" d="M244.7,52.3v4.9h3.8v8.6h-17.9v-8.6h3.8V36.7h-3.8v-8.6h23.1c2.8,0,7.4,0.5,10.3,3.2c0.9,0.9,3.3,3.6,3.3,8
			c0,6.5-3.4,9.8-7.3,11.3l3.8,6.6h4.7v8.6h-11.3l-5.8-13.5H244.7z M244.7,44.9h6.9c1.3,0,3-0.3,4-1.2c0.6-0.6,1.5-1.7,1.5-3.4
			c0-1.7-0.9-2.6-1.5-3.1c-1-0.8-2.9-0.9-4.2-0.9h-6.7V44.9z"/>
		<path class="st1" d="M278.1,32.3c4.4-4.5,10.4-5.3,14.2-5.3c7.5,0,11.8,2.7,14.3,5.2c2.2,2.2,5.3,6.8,5.3,15
			c0,7.2-2.5,11.8-5.5,14.8c-4.1,4-9.4,5-14,5c-4.2,0-9.5-0.6-13.9-4.9c-3.1-3-5.6-7.8-5.6-15.1S275.5,34.9,278.1,32.3z M286.6,55.9
			c1.7,1.9,3.8,2.3,5.8,2.3c1.7,0,3.9-0.4,5.8-2.3c2.1-2.2,2.7-6,2.7-9.1c0-3.9-0.8-7.1-2.7-8.9c-1.7-1.7-3.7-2.2-5.8-2.2
			c-2.2,0-4.2,0.6-5.8,2.3c-2.5,2.6-2.6,7.1-2.6,9.1C283.9,49.8,284.3,53.6,286.6,55.9z"/>
		<path class="st1" d="M369.9,65.8H353v-8.4h3.3V39.1h-0.2l-9.1,26.7h-7.5l-9.1-26.7h-0.2v18.4h3.3v8.4h-16.9v-8.6h3.8V36.7h-3.8
			v-8.6h19.1l8,24.7h0.2l8.1-24.7h17.7v8.6h-3.8v20.5h3.8V65.8z"/>
		<path class="st1" d="M379.9,32.3c4.4-4.5,10.4-5.3,14.2-5.3c7.5,0,11.8,2.7,14.3,5.2c2.2,2.2,5.3,6.8,5.3,15
			c0,7.2-2.5,11.8-5.5,14.8c-4.2,4-9.4,5-14,5c-4.2,0-9.5-0.6-13.9-4.9c-3.1-3-5.6-7.8-5.6-15.1S377.3,34.9,379.9,32.3z M388.4,55.9
			c1.7,1.9,3.8,2.3,5.8,2.3c1.7,0,3.9-0.4,5.8-2.3c2.1-2.2,2.7-6,2.7-9.1c0-3.9-0.8-7.1-2.7-8.9c-1.7-1.7-3.7-2.2-5.8-2.2
			c-2.2,0-4.2,0.6-5.8,2.3c-2.5,2.6-2.6,7.1-2.6,9.1C385.8,49.8,386.1,53.6,388.4,55.9z"/>
		<path class="st1" d="M420.7,56h10.2v9.8h-10.2V56z"/>
		<path class="st1" d="M452.5,57.7h2.8v8.1h-16.9v-8.6h3.8V36.7h-3.8v-8.6h17v7.9h-2.9V57.7z M461.7,35.9h-2.3v-7.9h16.3v8.6H472
			l-8.1,9.8l9,10.7h3v8.6h-17.6v-8.1h2.6l-7.7-10.2L461.7,35.9z"/>
		<path class="st1" d="M509.9,52.6v13.2h-32.1v-9.1l18.1-19.8H487v3.3h-8.3V28.1h30.1v7.6L490,57h11.6v-4.4H509.9z"/>
	</g>
</g>
</svg>
