<?xml version="1.0" encoding="utf-8"?>
<!-- Generator: Adobe Illustrator 25.2.3, SVG Export Plug-In . SVG Version: 6.00 Build 0)  -->
<svg version="1.1" id="Layer_1" xmlns="http://www.w3.org/2000/svg" xmlns:xlink="http://www.w3.org/1999/xlink" x="0px" y="0px"
	 viewBox="0 0 409 181.7" style="enable-background:new 0 0 409 181.7;" xml:space="preserve">
<style type="text/css">
	.st0{fill:#FFCB05;}
	.st1{fill:#FFFFFF;}
	.st2{fill:#461100;}
</style>
<g>
	<polygon class="st0" points="164.6,32.1 176.1,32.2 182.7,22.7 186.1,33.7 197.1,37 187.8,43.7 188,55.2 178.7,48.4 167.9,52.2 
		171.5,41.3 	"/>
	<polygon class="st1" points="128.7,30.6 137.8,28.5 141.2,19.8 146.1,27.8 155.4,28.3 149.3,35.4 151.7,44.5 143,40.9 135.2,45.9 
		135.9,36.6 	"/>
	<path class="st2" d="M45.6,129.3c-4.3-0.6-8.5-2.8-11.8-6L6.5,96C2.3,91.7-0.1,86,0,80.5c0.1-4.6,1.8-8.8,5-11.9L70.3,5
		c3.9-3.9,9.4-5.6,15-4.8c3.9,0.6,7.4,2.4,10.2,5.1l21.3,21c6.9,6.7,7.7,17.7,1.8,25.2l-57.5,72C57.5,128.1,51.7,130.2,45.6,129.3
		C45.6,129.3,45.6,129.3,45.6,129.3"/>
	<path class="st1" d="M78.3,9L11.2,74.4c-3.6,3.5-2.9,10.3,1.7,15l27.9,27.9c4.7,4.6,11.2,5.1,14.5,1l59-73.9
		c3.1-3.9,2.6-10-1.1-13.6L91.4,9.3C87.7,5.7,81.9,5.6,78.3,9 M100.9,53.1L95.6,48c2.4-4.6,1.9-10.4-1.2-14.9L99,28
		C104.6,35.3,105.4,45.5,100.9,53.1 M97.5,57.2C91,63,81.1,63,73.2,57.1l4.6-5.2c4.7,3.1,10.3,3.2,14.4,0.2L97.5,57.2z M45.3,87.9
		c1.1-1.3,3.3-1.1,4.8,0.4l6.3,6.2c1.5,1.4,1.8,3.7,0.7,5l-1.9,2.2c-1.1,1.3-3.2,1.2-4.8-0.3l-6.4-6.3c-1.5-1.5-1.8-3.7-0.7-5
		L45.3,87.9z M54.9,77.3c1.1-1.3,3.2-1.1,4.7,0.3l6.1,6c1.4,1.4,1.7,3.6,0.7,4.9l-1.9,2.2c-1.1,1.3-3.2,1.2-4.7-0.2l-6.3-6.1
		c-1.5-1.4-1.7-3.7-0.6-4.9L54.9,77.3z M64.4,66.7c1.1-1.3,3.2-1.2,4.6,0.2l6,5.8c1.4,1.4,1.7,3.5,0.6,4.8l-1.9,2.2
		c-1.1,1.3-3.1,1.2-4.6-0.2L63,73.6c-1.4-1.4-1.7-3.6-0.5-4.8L64.4,66.7z M78.9,46.1c-3.4-3.3-3.8-8.5-0.9-11.6
		c2.9-3.1,7.9-3,11.1,0.2c3.3,3.2,3.7,8.4,0.9,11.6C87.3,49.5,82.3,49.4,78.9,46.1 M29.1,71.7c1.2-1.2,3.4-1,4.8,0.5l6.2,6.2
		c1.5,1.5,1.7,3.7,0.6,4.9l-2,2.1c-1.2,1.2-3.3,1-4.8-0.5l-6.4-6.4c-1.5-1.5-1.7-3.7-0.6-4.9L29.1,71.7z M39.1,61.6
		c1.2-1.2,3.3-1,4.7,0.4l6.1,6c1.4,1.4,1.7,3.6,0.5,4.8l-2,2.1c-1.1,1.2-3.3,1.1-4.7-0.4l-6.2-6.2c-1.5-1.5-1.7-3.6-0.5-4.8
		L39.1,61.6z M49,51.4c1.2-1.2,3.3-1,4.7,0.3l5.9,5.9c1.4,1.4,1.6,3.5,0.5,4.7l-1.9,2.1c-1.1,1.2-3.2,1.1-4.7-0.3l-6-6
		c-1.4-1.4-1.6-3.5-0.4-4.7L49,51.4z M66.7,27.1l5.6,5.6c-2.6,4.4-2.2,10.3,1.1,14.9l-4.7,5.2C62.2,44.8,61.5,34.3,66.7,27.1
		 M70.5,23.3c7.1-5.3,17.2-5,24.5,0.7l-4.7,5.1c-4.5-2.9-10.1-3-14.3-0.3L70.5,23.3z"/>
	<path class="st2" d="M408.7,107.5c-0.5-3.4-1.8-8.4-6.8-12.3c1.2-2.9,1.5-6.1,0.9-9.7c-0.9-5.5-3.6-10.2-7.7-13
		c-1.6-1.1-3.3-1.9-5.2-2.5c0.7-0.4,1.4-1,1.9-1.7c1-1.4,1.5-3.2,1.2-4.9l-0.3-2c-0.5-3.1-3.1-5.4-6.1-5.6l0,0
		c2.4-1.3,3.8-4,3.4-6.9l-0.3-2c-0.6-3.6-4-6.1-7.6-5.5l-6.7,1.1c-0.4,0.1-0.8,0.2-1.2,0.3c-0.4,0-0.8,0-1.3,0.1l-6.8,1.1
		c-0.4,0.1-0.7,0.2-1.1,0.3c-0.4,0-0.7,0-1.1,0.1l-5.4,0.9c-1.1,0.2-2.2,0.6-3.1,1.3c-1.1-0.4-2.2-0.5-3.3-0.3l-7.2,1.1
		c-0.5,0.1-0.9,0.2-1.3,0.3c-0.4,0-0.9,0-1.4,0.1l-7.1,1.1c-0.5,0.1-1,0.2-1.4,0.4c-0.5,0-1,0-1.5,0.1l-7,1.1
		c-0.5,0.1-1,0.2-1.4,0.4c-0.5,0-1,0-1.5,0.1l-7.1,1.1c-2.2,0.4-4,1.8-4.9,3.6c-1.5-1.5-3.6-2.3-5.8-1.9l-7.2,1.1
		c-0.4,0.1-0.9,0.2-1.3,0.3c-0.4,0-0.9,0-1.4,0.1l-15.9,2.5c-1.5,0.2-2.8,1-3.8,2c-2.5-1-5.2-1.3-8.1-0.8c0,0,0,0,0,0
		c-1.9,0.3-3.7,0.9-5.3,1.8c0-0.2,0-0.5,0-0.7c-0.3-2.6-2-4.9-4.7-5.7c-1-0.3-2.1-0.4-3.1-0.2l-2.4,0.4c-1.4,0.2-2.6,0.9-3.6,1.8
		c-1.1,0.3-2.6,0.7-4.3,1.4c-5.4,2.2-7.8,6-8.7,9.8c-0.2,0.1-0.3,0.2-0.6,0.3l-11.7-3.6l-7.3-22.8c-0.2-0.7-1.2-0.9-1.7-0.3
		l-13.7,19.6l-23.9-0.1c-0.8,0-1.2,0.9-0.7,1.5l9,11.9c-1.2,0.5-2.1,1.3-2.9,2.2c-0.4-0.4-0.8-0.8-1.2-1.2c-1.4-1-3.2-1.5-4.9-1.2
		l-11.4,1.8c-2,0.3-3.9,1-5.4,1.9c-1.1-0.5-2.4-0.6-3.6-0.5l-8.7,1.4c-1.5,0.2-2.9,1-3.9,2.1c-1.3-0.8-2.8-1.1-4.4-0.8l-9,1.4
		c-1.3,0.2-2.5,0.8-3.4,1.7c-2.3-0.8-4.9-1-7.7-0.5c-4,0.6-7.3,2.4-9.6,4.8c-2.7-1.7-6-2.4-9.6-1.8c-1.7,0.3-3.1,0.8-4.3,1.4
		c-0.4,0-0.7,0-1.1,0.1l-6.7,1.1c-1.1,0.2-2.2,0.6-3.1,1.3c-2.4-0.5-4.5-0.1-5.6,0L65.6,91c-3.6,0.6-6.1,4-5.5,7.6l0.5,3.3
		c0.2,1.5,1,2.8,2,3.8c-3.5,5-4.1,10.4,0.8,15.5c-0.1,0.1-0.2,0.2-0.2,0.3c-1.1,1.6-1.6,3.5-1.3,5.4l1.7,11c0.2,1.1,0.6,2.2,1.2,3.1
		c1.2,1.7,2.9,2.7,4.8,3.1l2,12.7c-2.7,1.4-4.3,4.4-3.8,7.6l1.8,11.1c0.6,3.6,3.7,6.2,7.2,6.2c0.4,0,0.8,0,1.2-0.1l22.8-3.6
		c1-0.2,1.9-0.5,2.8-1.1c0.9,0.2,1.9,0.3,3,0.1l22.8-3.6c1.3-0.2,2.6-0.8,3.6-1.6c0.9,0.4,1.8,0.5,2.8,0.5c0.4,0,0.8,0,1.1-0.1
		l24.7-3.9c4-0.6,6.7-4.4,6.1-8.4l-0.6-3.7c4.3,0.3,8.7-0.2,13-0.9l0.4,2.5c0.6,3.6,3.7,6.2,7.2,6.2c0.4,0,0.8,0,1.2-0.1l18.2-2.9
		c2.6-0.4,4.7-2.1,5.7-4.6c0.4,0.5,0.8,0.9,1.4,1.3c1.6,1.1,3.5,1.6,5.4,1.3l22.7-3.6c3.3-0.5,5.7-3.2,6.1-6.4
		c4.6,3,9.8,3.8,14.6,3.8c3.1,0,5.9-0.4,8.4-0.7c9-1.4,15.4-3.9,19.6-7.6c2.4-2.1,4.2-4.5,5.4-7.1c0.9-0.1,1.7-0.1,2.6-0.2
		c0.1,0,0.2,0,0.3,0c0.7,0.6,1.4,1.1,2.1,1.6c5.9,4.2,12,5.3,17.2,5.3c2.6,0,5-0.3,7-0.6c9.4-1.5,16.7-5.5,21.6-12c0,0,0,0,0-0.1
		c0.3-0.4,0.6-0.8,0.9-1.3l0.1,0.8c0.2,1.3,0.7,2.6,1.5,3.6c1.4,1.8,3.5,2.7,5.7,2.7c0.4,0,0.8,0,1.1-0.1l31.5-5
		c8.1-1.3,13.9-4.5,17.5-9.5c0,0,0.1-0.1,0.1-0.1C408.5,118.4,409.6,113.2,408.7,107.5z M86.7,165.4c0.2-0.4,0.3-0.7,0.4-1.1
		c0.2,0.3,0.4,0.7,0.7,1L86.7,165.4z M115,160.9c0.1-0.2,0.2-0.4,0.2-0.6c0.2,0,0.3,0,0.5-0.1c0.1,0.2,0.2,0.3,0.4,0.5L115,160.9z
		 M145.5,156.1c0.1-0.3,0.2-0.5,0.3-0.8c0.1,0.2,0.3,0.5,0.4,0.7L145.5,156.1z M365.2,121.3c0.1-0.2,0.2-0.5,0.3-0.7
		c0.1,0.2,0.2,0.4,0.3,0.6L365.2,121.3z"/>
	<g>
		<path class="st0" d="M66,98.2l11.9-1.9c1.6-0.2,5.8-0.9,6.4,3.2c0.4,2.3-1,4-2.8,4.5l0,0.1c2.9,0.2,4.3,1.1,4.7,3.8
			c0.5,3.5-2,4.8-5.7,5.3l-11.9,1.9l-0.5-3.4l2-0.3l-1.6-10.1l-2,0.3L66,98.2z M74.2,103.7l2.6-0.4c0.8-0.1,2.8-0.5,2.5-2
			c-0.2-1.4-1.5-1.5-2.9-1.2l-2.7,0.4L74.2,103.7z M75.2,110.6l3.2-0.5c2.5-0.4,2.7-1.4,2.6-2.2c-0.2-1.2-0.8-1.9-3.2-1.5l-3.1,0.5
			L75.2,110.6z"/>
		<path class="st0" d="M86.7,94.9l6.8-1.1l0.3,2l0.1,0c1.6-2.7,3.8-3.3,5-3.5c4.8-0.8,8.3,2.3,9.1,7.9c0.8,5.3-1.5,9.5-6.4,10.3
			c-0.7,0.1-3.5,0.4-5.5-1.6l0.7,4.5l2-0.3l0.5,3.4l-9.1,1.4l-0.5-3.4l2-0.3L89.3,98l-2,0.3L86.7,94.9z M99.8,107.3
			c2.9-0.5,3.5-3.4,3-6.4c-0.7-4.7-3.3-5.3-4.8-5c-1.5,0.2-3.8,1.6-3.1,6.3C95.4,105.2,96.8,107.8,99.8,107.3z"/>
		<path class="st0" d="M128.9,100.5c-0.6,5-4.8,6.4-7.9,6.9c-2.2,0.4-9.2,1-10.5-7.7c-0.9-5.9,2.4-9.7,8-10.6c5.2-0.8,8,1.8,9.2,4.7
			c0.8,1.6,1,3.3,1.2,4.3l-12.9,2c0.3,1.6,1.5,4.3,4.8,3.8c1.5-0.2,2.9-1.1,3.1-2.7L128.9,100.5z M123.2,96.1
			c-0.7-3.6-3-3.7-4.2-3.5c-3,0.5-3.7,3-3.5,4.8L123.2,96.1z"/>
		<path class="st0" d="M158.9,100.8l-9,1.4l-0.5-3.4l1.9-0.3l-1.2-7.4l0-0.9l-0.1,0l-2.6,12.4l-3.4,0.5l-6.3-11l-0.1,0l0.2,0.9
			l1.2,7.4l1.9-0.3l0.5,3.4l-9,1.4l-0.5-3.4l2-0.3l-1.6-10.1l-2,0.3l-0.5-3.4l9.2-1.5l6.1,11.1l0,0l2.3-12.4l8.8-1.4l0.5,3.4l-2,0.3
			l1.6,10.1l2-0.3L158.9,100.8z"/>
		<path class="st0" d="M170,95.7l2-0.3l-0.4-2.6l-2.1,0.3l-2.7,6.4l-5.5,0.9l-0.5-3.4l2.1-0.3l1.8-3.3c-3.3-0.1-4.8-2.4-5.1-4.4
			c-0.9-5.5,4.7-6.4,5.7-6.6l11.6-1.8l0.5,3.4l-2,0.3l1.6,10.1l2-0.3l0.5,3.4l-9.1,1.4L170,95.7z M167.8,85.5
			c-1.2,0.2-3.2,0.7-2.9,2.6c0.3,1.6,1.6,1.9,3.5,1.6l2.7-0.4l-0.7-4.3L167.8,85.5z"/>
	</g>
	<g>
		<path class="st0" d="M255.2,60.1c0.4,4.5-5.4,4.5-8.4,5.8c-2.4,1.1-4.3,3-3.6,7.7l0.1,0c0.4-1.8,1.6-4.7,5.9-5.3
			c5.8-0.9,8.8,3.2,9.5,7.9c0.7,4.4-1,9.2-6.9,10.2c-8.1,1.3-9.8-6.8-10.3-10.1c-1.4-8.9,1.3-11.5,4.8-12.9c4.3-1.8,6.4-1.3,6.6-2.9
			L255.2,60.1z M251.2,84.3c3.5-0.6,4.9-3.4,4.3-7.3c-0.4-2.7-1.8-7.3-6.5-6.6c-4.7,0.7-4.6,5.5-4.2,8.1
			C245.2,81.1,246.8,85,251.2,84.3z"/>
		<path class="st0" d="M268.3,65c6.2-1,9.1,3.3,9.8,7.8c0.7,4.5-0.7,9.5-6.9,10.4c-6.2,1-9.1-3.3-9.8-7.8
			C260.7,71,262.1,66,268.3,65z M270.9,81.2c1.3-0.2,5.2-1.1,4.1-7.9c-1.1-6.8-5.1-6.5-6.4-6.3c-1.3,0.2-5.2,1.1-4.1,7.9
			C265.6,81.7,269.6,81.4,270.9,81.2z"/>
		<path class="st0" d="M291.6,77.2l2.2-0.3l-2-12.8L286,65l0.5,3.3c0.9,5.9,1.2,12.9-5.3,12.7l-0.3-2.2c4.1,0.2,3.5-6.1,2.9-10.1
			l-0.5-3.3l-2.5,0.4l-0.3-2.1l16.1-2.6l0.3,2.1l-2.2,0.3l2,12.8l2.2-0.3l0.3,2.1l-7.3,1.2L291.6,77.2z"/>
		<path class="st0" d="M299.3,60.8l7.3-1.2l0.3,2.1l-2.2,0.3l0.7,4.6l4.1-0.6c2.6-0.4,7-0.6,7.7,3.9c0.6,4-2.7,5.8-5.5,6.2l-9.8,1.6
			l-0.3-2.1l2.2-0.3l-2-12.8l-2.2,0.3L299.3,60.8z M306.8,74.8l4-0.6c1.5-0.2,4-1.1,3.5-3.8c-0.4-2.8-3.7-2.4-5-2.2l-3.4,0.5
			L306.8,74.8z"/>
		<path class="st0" d="M317.5,57.9l7.2-1.1l0.3,2.1l-2.1,0.3l2,12.8l7.1-1.1L330,58l-2.1,0.3l-0.3-2.1l7.1-1.1l0.3,2.1l-2.1,0.3
			l2,12.8l7.1-1.1l-2-12.8l-2.1,0.3l-0.3-2.1l7.2-1.1l0.3,2.1l-2.2,0.3l2,12.8l2.2-0.3l0.3,2.1l-27.3,4.3l-0.3-2.1l2.2-0.3l-2-12.8
			l-2.2,0.3L317.5,57.9z"/>
		<path class="st0" d="M352,67.7l-2-12.8l-2.2,0.3l-0.3-2.1l7.3-1.2l0.3,2.1l-2.2,0.3l1.8,11.4l6.5-14.9l5.5-0.9l0.3,2.1l-2.2,0.3
			l2,12.8l2.2-0.3l0.3,2.1l-7.3,1.2l-0.3-2.1l2.2-0.3l-1.8-11.5l-6.5,14.9l-5.5,0.9l-0.3-2.1L352,67.7z"/>
		<path class="st0" d="M381.2,63l1.8-0.3l-4.4-4.4l-2.7,5.5l1.8-0.3l0.3,2.1l-7.1,1.1l-0.3-2.1l2.1-0.3l4-7.6l-5.7-5.3l-1.8,0.3
			l-0.3-2.1l6.9-1.1l0.3,2.1l-1.9,0.3l3.8,3.8l2.4-4.7l-1.7,0.3l-0.3-2.1l6.8-1.1l0.3,2.1l-1.8,0.3l-3.6,6.8l6.3,5.9l1.9-0.3
			l0.3,2.1l-7.1,1.1L381.2,63z"/>
	</g>
	<g>
		<path class="st1" d="M103.7,158.8l4.6-0.7l-4.2-26.3l-15,2.4l4.2,26.3l4.6-0.7l1.8,11.1l-22.8,3.6l-1.8-11.1l4.8-0.8l-4.2-26.3
			l-4.8,0.8l-1.8-11.1l51.8-8.2l1.8,11.1l-5.3,0.8l4.2,26.3l4.8-0.8l1.8,11.1l-22.8,3.6L103.7,158.8z"/>
		<path class="st1" d="M128,116.6l28-4.4c4.4-0.7,10.6-1.3,15.5,2.2c4.3,3.1,5.7,7.8,6.2,11.1c0.5,3.3,0.4,8.5-2.9,12.8
			c-3.6,4.9-10.4,6.3-14,6.8l-9.4,1.5l0.8,5.2l6.6-1l1.6,10.4l-24.7,3.9l-1.8-11.1l4.8-0.8l-4.2-26.3l-4.8,0.8L128,116.6z
			 M149.9,137.2l7.3-1.2c4.4-0.7,7.6-3.2,6.9-7.6c-0.7-4.7-3.3-5.8-9.1-4.9l-7.1,1.1L149.9,137.2z"/>
		<path class="st1" d="M180,108.3l22.7-3.6l1.8,11.1l-4.5,0.7l2.9,18.4l12.3-32.2l18.2-2.9l1.8,11.1l-4.8,0.8l4.2,26.3l4.8-0.8
			l1.8,11.1l-22.7,3.6l-1.8-11.1l4.5-0.7l-3-18.8l-12.2,32.5l-18.2,2.9l-1.8-11.1l4.8-0.8l-4.2-26.3l-4.8,0.8L180,108.3z"/>
		<path class="st1" d="M251.7,97l1,3.4c3.1-4.1,8.9-6.2,12.3-6.8c8-1.3,11.5-0.2,13.8,0.8c5.6,2.4,7.1,6.6,7.6,9.8
			c0.5,3-0.2,5.6-1.3,7.4c-1.1,1.8-3.3,3.6-5.7,4.5l0,0.3c2.5,0.2,5.4,1.1,7.2,2.5c2,1.6,3.6,4,4.1,7.2c0.9,5.7-1.3,10.2-4.8,13.3
			c-2.2,2-6.7,4.4-15.9,5.9c-5,0.8-12.5,1.6-18-2.1c-3.6-2.5-6.6-7.1-7.5-12.9l12.9-2c0.4,2.6,1.4,5.1,3.9,6.4
			c2.2,1.1,4.9,0.9,6.5,0.7c1.7-0.3,4.4-0.8,6.1-2.2c1.8-1.4,2.4-3.4,2.2-5.2c-0.3-2.1-1.7-3.2-3-3.8c-1.6-0.7-3.7-0.5-5.9-0.1
			l-4.8,0.8l-1.5-9.3l4.8-0.8c3.8-0.6,5.3-1.6,6-2.6c0.9-1.2,0.8-2.4,0.7-3.4c-0.7-4.6-5-5-8.4-4.5c-1.9,0.3-3.9,1.3-5.1,3
			c-0.9,1.3-1.4,3-1.3,5l-12.7,2l-2.5-15.6L251.7,97z"/>
		<path class="st1" d="M298.9,95c4.8-6.7,12.3-8.9,17.1-9.7c9.6-1.5,15.7,1.1,19.4,3.7c3.3,2.4,8.2,7.7,9.8,18.2
			c1.5,9.2-0.8,15.7-4.1,20.1c-4.5,6-11.1,8.3-16.9,9.2c-5.4,0.9-12.3,1.2-18.9-3.5c-4.6-3.2-8.8-8.9-10.3-18.3
			C293.6,105.4,296.1,98.9,298.9,95z M314.6,123.7c2.5,2.1,5.3,2.1,7.9,1.7c2.1-0.3,4.9-1.3,7-4.1c2.3-3.3,2.2-8.3,1.6-12.3
			c-0.8-5-2.5-8.9-5.3-11c-2.5-1.9-5.2-2.1-7.9-1.7c-2.8,0.5-5.3,1.6-7,4.1c-2.6,3.9-1.9,9.7-1.6,12.2
			C309.9,116.4,311.1,121.2,314.6,123.7z"/>
		<path class="st1" d="M347.7,81.8l31.5-5c3.3-0.5,8.2-0.8,11.8,1.7c2.2,1.6,4,4.3,4.6,8.1c0.4,2.7,0.3,5.2-1.5,7.7
			c-1.2,1.8-3,3.1-4.8,3.9l0,0.2c3.1,0,5.8,1,7.8,2.3c3.1,2.3,4,5.2,4.4,7.9c0.8,4.9-0.6,8-2,10.2c-3.1,4.4-8.8,5.9-12.6,6.5
			l-31.5,5l-1.8-11.1l4.8-0.8l-4.2-26.3l-4.8,0.8L347.7,81.8z M368.8,97.8l8.7-1.4c1.6-0.3,3.3-1,4.3-2.2c0.5-0.7,1-1.8,0.7-3.5
			c-0.3-1.7-1.2-2.4-1.8-2.8c-1.3-0.7-3.3-0.5-3.9-0.4l-9.4,1.5L368.8,97.8z M371.9,117.2l10.5-1.7c1.6-0.3,3.2-1,4.1-2
			c0.7-0.7,1.2-2,0.9-3.9c-0.4-2.2-1.6-3.1-2.2-3.5c-1.6-0.9-3.4-0.7-4.8-0.5l-10.1,1.6L371.9,117.2z"/>
	</g>
	<polygon class="st1" points="191.3,95.9 206.5,90.6 219.5,100.2 219.2,84.1 232.3,74.6 216.9,69.9 212,54.6 202.7,67.8 186.6,67.7 
		196.3,80.6 	"/>
</g>
</svg>
