<?xml version="1.0" encoding="utf-8"?>
<!-- Generator: Adobe Illustrator 25.2.3, SVG Export Plug-In . SVG Version: 6.00 Build 0)  -->
<svg version="1.1" id="Layer_1" xmlns="http://www.w3.org/2000/svg" xmlns:xlink="http://www.w3.org/1999/xlink" x="0px" y="0px"
	 viewBox="0 0 145.7 70.5" style="enable-background:new 0 0 145.7 70.5;" xml:space="preserve">
<style type="text/css">
	.st0{fill:#461000;}
</style>
<g>
	<polygon class="st0" points="39.4,0 39.4,16.1 44,16.1 35.8,30.2 27.3,16.1 32,16.1 32,0 0,0 0,16.1 7.1,16.1 19.3,35.2 7.9,35.2 
		7.9,49.8 25.4,49.8 25.4,54.4 18.4,54.4 18.4,70.5 51.8,70.5 51.8,54.4 44.7,54.4 44.7,49.8 61.9,49.8 61.9,35.2 50.7,35.2 
		62.7,16.1 69.8,16.1 69.8,0 	"/>
	<path class="st0" d="M93.9,54.4h7V15.5H90.8v11.1H75.3V0h70.4v26.6h-15.5V15.5h-10.1v38.8h7v16.1H93.7v-16H93.9z"/>
</g>
</svg>
