<?xml version="1.0" encoding="utf-8"?>
<!-- Generator: Adobe Illustrator 25.2.3, SVG Export Plug-In . SVG Version: 6.00 Build 0)  -->
<svg version="1.1" id="Layer_1" xmlns="http://www.w3.org/2000/svg" xmlns:xlink="http://www.w3.org/1999/xlink" x="0px" y="0px"
	 viewBox="0 0 346 107.2" style="enable-background:new 0 0 346 107.2;" xml:space="preserve">
<style type="text/css">
	.st0{fill:#461000;}
</style>
<g>
	<path class="st0" d="M9.8,26c8.3-8.5,19.4-9.9,26.5-9.9c14,0,22,5,26.7,9.7c4.1,4.1,9.9,12.8,9.9,28c0,13.4-4.6,22-10.3,27.6
		c-7.7,7.4-17.6,9.3-26.1,9.3c-7.8,0-17.7-1.1-26-9.2C4.8,76,0,66.9,0,53.2C0.1,39.4,5,30.8,9.8,26z M25.6,70.1
		c3.1,3.5,7,4.2,10.8,4.2c3.1,0,7.2-0.7,10.8-4.2c3.9-4.1,5-11.3,5-17c0-7.2-1.5-13.2-5-16.7c-3.1-3.2-6.8-4.1-10.8-4.1
		c-4.1,0-7.8,1.1-10.8,4.2c-4.6,4.9-4.9,13.3-4.9,16.9C20.7,58.7,21.3,65.8,25.6,70.1z"/>
	<path class="st0" d="M77.9,18.1h32.9v16.1h-6.5V61L129,18.1h26.4v16.1h-7v38.2h7v16.1h-32.9v-16h6.5V45.2l-24.7,43.4H77.9V72.5h7
		V34.2h-7V18.1z M140.5,0c-0.3,13.3-13.4,15.5-24.2,15.5c-10.2,0-23.4-2.2-23.4-15.5h16.6c0,4.8,3.5,6.5,7.1,6.5s7.1-1.6,7.2-6.5
		H140.5z"/>
	<path class="st0" d="M208.9,72.5h6.1v-13h-23.3v13h6.1v16.1h-32.5V72.5h7V34.2h-7V18.1h32.5v16.1h-6.1v10H215v-10h-6.1V18.1h32.5
		v16.1h-7v38.2h7v16.1h-32.5V72.5z"/>
	<path class="st0" d="M259.9,18.1h31.8l20.2,54.3h7v16.1h-31V74.2h5.1l-1.5-5.1h-20.6l-1.5,5.1h6v14.4h-30.1V72.5h6.9l14.2-38.7
		h-6.6L259.9,18.1L259.9,18.1z M274.6,56.6h13.2l-6.6-21.8L274.6,56.6z"/>
	<path class="st0" d="M327,70.5h19V85c0,6-0.7,12.8-5.2,17.3s-11.1,4.9-13.4,4.9H327v-9.1h0.6c2.7,0,5.2-0.7,6.8-2.2
		c1.9-1.7,2.8-4.9,2.5-7.4h-10v-18H327z"/>
</g>
</svg>
