<?xml version="1.0" encoding="utf-8"?>
<!-- Generator: Adobe Illustrator 25.2.3, SVG Export Plug-In . SVG Version: 6.00 Build 0)  -->
<svg version="1.1" id="Layer_1" xmlns="http://www.w3.org/2000/svg" xmlns:xlink="http://www.w3.org/1999/xlink" x="0px" y="0px"
	 viewBox="0 0 324.3 89.1" style="enable-background:new 0 0 324.3 89.1;" xml:space="preserve">
<style type="text/css">
	.st0{fill:#461000;}
</style>
<g>
	<g>
		<polygon class="st0" points="64.5,54.4 47.7,34.4 62.8,16.1 69.6,16.1 69.6,0 39.2,0 39.2,14.7 43.5,14.7 27.9,36.3 42.3,55.4 
			37.3,55.4 37.3,70.5 61.3,70.5 61.3,85.8 78,85.8 78.9,54.4 		"/>
		<polygon class="st0" points="26.4,14.7 31.7,14.7 31.7,0 0,0 0,16.1 7,16.1 7,54.4 0,54.4 0,70.5 31.6,70.5 31.6,55.4 26.4,55.4 
					"/>
	</g>
	<path class="st0" d="M100.2,0H132l20.2,54.3h7v16.1h-31V56.1h5.1l-1.5-5.1h-20.6l-1.5,5.1h6v14.4h-30V54.4h6.9l14.2-38.7h-6.6V0z
		 M114.9,38.5h13.2l-6.6-21.8L114.9,38.5z"/>
	<path class="st0" d="M163.3,0H204c6.3,0,15.3,0.5,21.4,6.6c5.4,5.4,6.3,12.4,6.3,17.1c0,4.8-1.4,12.2-6.9,17.5
		c-6.1,6.1-16.1,6.5-21.4,6.5h-13.7v7.5h9.6v15.1h-35.9V54.4h7V16.1h-7V0H163.3z M189.7,34.2h10.7c6.4,0,11.5-2.8,11.5-9.2
		c0-6.8-3.3-9-11.8-9h-10.4V34.2z"/>
	<path class="st0" d="M238.2,0H270l20.2,54.3h7v16.1h-31V56.1h5.1l-1.5-5.1h-20.6l-1.5,5.1h6v14.4h-30.1V54.4h6.9l14.2-38.7h-6.6V0
		H238.2z M252.9,38.5h13.2l-6.6-21.8L252.9,38.5z"/>
	<path class="st0" d="M305.3,52.4h19v14.5c0,6-0.7,12.8-5.2,17.3s-11.1,4.9-13.4,4.9h-0.4V80h0.6c2.7,0,5.2-0.7,6.8-2.2
		c1.9-1.7,2.8-4.9,2.5-7.4h-10v-18H305.3z"/>
</g>
</svg>
