<?xml version="1.0" encoding="utf-8"?>
<!-- Generator: Adobe Illustrator 25.2.3, SVG Export Plug-In . SVG Version: 6.00 Build 0)  -->
<svg version="1.1" id="Layer_1" xmlns="http://www.w3.org/2000/svg" xmlns:xlink="http://www.w3.org/1999/xlink" x="0px" y="0px"
	 viewBox="0 0 887.2 107.3" style="enable-background:new 0 0 887.2 107.3;" xml:space="preserve">
<style type="text/css">
	.st0{fill:#461000;}
</style>
<g>
	<g>
		<polygon class="st0" points="64.5,72.5 47.7,52.5 62.8,34.2 69.6,34.2 69.6,18.1 39.2,18.1 39.2,32.8 43.5,32.8 27.9,54.4 
			42.3,73.5 37.3,73.5 37.3,88.6 61.3,88.6 61.3,103.9 78,103.9 78.9,72.5 		"/>
		<polygon class="st0" points="26.4,32.8 31.7,32.8 31.7,18.1 0,18.1 0,34.2 7,34.2 7,72.5 0,72.5 0,88.6 31.6,88.6 31.6,73.5 
			26.4,73.5 		"/>
	</g>
	<path class="st0" d="M100.2,18.1H132l20.2,54.3h7v16.1h-31V74.2h5.1l-1.5-5.1h-20.6l-1.5,5.1h6v14.4H85.7V72.5h6.9l14.2-38.7h-6.6
		V18.1z M114.9,56.6h13.2l-6.6-21.8L114.9,56.6z"/>
	<path class="st0" d="M163.3,18.1H204c6.3,0,15.3,0.5,21.4,6.6c5.4,5.4,6.3,12.4,6.3,17.1c0,4.8-1.4,12.2-6.9,17.5
		c-6.1,6.1-16.1,6.5-21.4,6.5h-13.7v7.5h9.6v15.1h-35.9V72.5h7V34.2h-7V18.1z M189.7,52.3h10.7c6.4,0,11.5-2.8,11.5-9.2
		c0-6.8-3.3-9-11.8-9h-10.4V52.3z"/>
	<path class="st0" d="M238.2,18.1H270l20.2,54.3h7v16.1h-31V74.2h5.1l-1.5-5.1h-20.6l-1.5,5.1h6v14.4h-30.1V72.5h6.9l14.2-38.7h-6.6
		V18.1z M252.9,56.6h13.2l-6.6-21.8L252.9,56.6z"/>
	<path class="st0" d="M305.3,70.5h19V85c0,6-0.7,12.8-5.2,17.3c-4.5,4.5-11.1,4.9-13.4,4.9h-0.4v-9.1h0.6c2.7,0,5.2-0.7,6.8-2.2
		c1.9-1.7,2.8-4.9,2.5-7.4h-10V70.5z"/>
</g>
</svg>
