<?xml version="1.0" encoding="utf-8"?>
<!-- Generator: Adobe Illustrator 25.2.3, SVG Export Plug-In . SVG Version: 6.00 Build 0)  -->
<svg version="1.1" id="Layer_1" xmlns="http://www.w3.org/2000/svg" xmlns:xlink="http://www.w3.org/1999/xlink" x="0px" y="0px"
	 viewBox="0 0 675 94" style="enable-background:new 0 0 675 94;" xml:space="preserve">
<style type="text/css">
	.st0{fill:#FFFFFF;}
	.st1{fill:#EE2E24;}
</style>
<g>
	<path class="st0" d="M628.1,94H47C21,94,0,72.9,0,47l0,0C0,21,21.1,0,47,0h581c26,0,47,21.1,47,47l0,0
		C675.1,72.9,654.1,94,628.1,94z"/>
	<g>
		<path class="st1" d="M120.9,69h-19.7v-9.9h3.9V37.6h-0.2L94.1,69h-8.8L74.6,37.6h-0.2v21.6h3.9v9.9H58.5V59H63V34.8h-4.5V24.7H81
			l9.4,29h0.2l9.5-29h20.8v10.1h-4.5v24.1h4.5V69z"/>
		<path class="st1" d="M189.8,69H170v-9.9h3.9V37.6h-0.2L162.9,69h-8.8l-10.7-31.4h-0.2v21.6h3.9v9.9h-19.7V59h4.5V34.8h-4.5V24.7
			h22.4l9.4,29h0.2l9.5-29h20.8v10.1h-4.5v24.1h4.5V69H189.8z"/>
		<path class="st1" d="M233,24.7v14.2h-10.1c0-5.2-4.8-6.5-7.4-6.5H215c-1.3,0-3.3,0-4.6,0.9c-1.1,0.7-1.4,1.9-1.4,2.7
			c0,3.4,2.7,3.8,8,4.9l5.1,1.2c2.7,0.7,6.5,2,8.8,4c2.2,2,3.8,4.7,3.8,9.1c0,5.1-1.5,8.1-3.9,10.3c-4.6,4.2-10.2,4.6-14,4.6
			c-3.4,0-9.3-0.6-12-4.3l-0.2,3.1H196V54.1h10.8c0.5,4.6,3.6,7.2,8.7,7.2c0.5,0,3.4-0.1,5.1-1.2c1.2-0.7,2.1-2,2.1-3.8
			c0-1.2-0.5-2.4-2-3.3c-0.9-0.6-4.1-1.3-4.7-1.5l-4.6-1.1c-3.6-0.9-8.1-1.6-10.9-4.3c-2-1.8-3.5-4.8-3.5-8.7
			c0-2.6,0.4-7.1,4.5-10.7c3.6-3.1,7.6-3.5,12.5-3.5c2.4,0,7.4,0.6,9.9,3.9l0.4-2.6h8.8V24.7z"/>
		<path class="st1" d="M240.7,24.7h25.6c4,0,9.6,0.4,13.5,4.2c3.4,3.4,4,7.8,4,10.8s-0.9,7.6-4.3,11c-3.9,3.9-10.1,4.1-13.5,4.1
			h-8.6v4.7h6v9.5h-22.6V59h4.5V34.8h-4.5V24.7H240.7z M257.3,46.2h6.7c4,0,7.2-1.8,7.2-5.8c0-4.3-2.1-5.6-7.4-5.6h-6.6v11.4H257.3z
			"/>
		<path class="st1" d="M304.8,53.1v5.8h4.5V69h-21V58.9h4.5V34.8h-4.5V24.7h27.2c3.3,0,8.7,0.6,12.1,3.8c1.1,1.1,3.9,4.2,3.9,9.4
			c0,7.6-4,11.5-8.6,13.3l4.5,7.8h5.5V69h-13.3l-6.8-15.9C312.6,53.1,304.8,53.1,304.8,53.1z M304.8,44.4h8.1c1.5,0,3.5-0.4,4.7-1.4
			c0.7-0.7,1.8-2,1.8-4c0-2-1.1-3.1-1.8-3.6c-1.2-0.9-3.4-1.1-4.9-1.1h-7.9L304.8,44.4L304.8,44.4z"/>
		<path class="st1" d="M344,29.6c5.2-5.3,12.2-6.2,16.7-6.2c8.8,0,13.9,3.2,16.8,6.1c2.6,2.6,6.2,8,6.2,17.6
			c0,8.5-2.9,13.9-6.5,17.4c-4.8,4.7-11,5.9-16.5,5.9c-4.9,0-11.2-0.7-16.3-5.8c-3.6-3.5-6.6-9.2-6.6-17.7S341,32.7,344,29.6z
			 M354,57.4c2,2.2,4.5,2.7,6.8,2.7c2,0,4.6-0.5,6.8-2.7c2.5-2.6,3.2-7.1,3.2-10.7c0-4.6-0.9-8.3-3.2-10.5c-2-2-4.3-2.6-6.8-2.6
			c-2.6,0-4.9,0.7-6.8,2.7c-2.9,3.1-3.1,8.3-3.1,10.7C350.8,50.2,351.3,54.7,354,57.4z"/>
		<path class="st1" d="M451.9,69h-19.9v-9.9h3.9V37.6h-0.2L425,69h-8.8l-10.7-31.4h-0.2v21.6h3.9v9.9h-19.9V59h4.5V34.8h-4.5V24.7
			h22.4l9.4,29h0.2l9.5-29h20.8v10.1h-4.5v24.1h4.5V69H451.9z"/>
		<path class="st1" d="M463.7,29.6c5.2-5.3,12.2-6.2,16.7-6.2c8.8,0,13.9,3.2,16.8,6.1c2.6,2.6,6.2,8,6.2,17.6
			c0,8.5-2.9,13.9-6.5,17.4c-4.9,4.7-11,5.9-16.5,5.9c-4.9,0-11.2-0.7-16.3-5.8c-3.6-3.5-6.6-9.2-6.6-17.7S460.6,32.7,463.7,29.6z
			 M473.7,57.4c2,2.2,4.5,2.7,6.8,2.7c2,0,4.6-0.5,6.8-2.7c2.5-2.6,3.2-7.1,3.2-10.7c0-4.6-0.9-8.3-3.2-10.5c-2-2-4.3-2.6-6.8-2.6
			c-2.6,0-4.9,0.7-6.8,2.7c-2.9,3.1-3.1,8.3-3.1,10.7C470.6,50.2,471,54.7,473.7,57.4z"/>
		<path class="st1" d="M511.6,57.5h12V69h-12V57.5z"/>
		<path class="st1" d="M549,59.5h3.3V69h-19.9V58.9h4.5V34.8h-4.5V24.7h20V34H549V59.5z M559.8,33.9h-2.7v-9.3h19.2v10.1h-4.3
			l-9.5,11.5L573,58.8h3.5v10.1h-20.7v-9.5h3.1l-9.1-12L559.8,33.9z"/>
		<path class="st1" d="M616.5,53.5V69h-37.7V58.3L600,35h-10.5v3.9h-9.8V24.7h35.4v8.9l-22.1,25h13.6v-5.2H616.5z"/>
	</g>
</g>
</svg>
