<?xml version="1.0" encoding="utf-8"?>
<!-- Generator: Adobe Illustrator 25.2.3, SVG Export Plug-In . SVG Version: 6.00 Build 0)  -->
<svg version="1.1" id="Layer_1" xmlns="http://www.w3.org/2000/svg" xmlns:xlink="http://www.w3.org/1999/xlink" x="0px" y="0px"
	 viewBox="0 0 236.7 26.4" style="enable-background:new 0 0 236.7 26.4;" xml:space="preserve">
<style type="text/css">
	.st0{fill:#552100;}
</style>
<g>
	<path class="st0" d="M0,5.4h13.6c1.4,0,3.5,0.2,4.9,1.5c0.8,0.8,1.4,2.1,1.4,3.7c0,1.2-0.2,2.2-1.2,3.1c-0.6,0.7-1.5,1.1-2.3,1.3
		v0.1c1.3,0.2,2.4,0.8,3.1,1.5c1.2,1.2,1.3,2.5,1.3,3.6c0,2.1-0.8,3.4-1.5,4.2c-1.6,1.6-4.1,1.9-5.8,1.9H0v-4.8h2.1V10.2H0V5.4z
		 M7.9,13.6h3.7c0.7,0,1.5-0.2,1.9-0.7c0.3-0.2,0.5-0.7,0.5-1.4s-0.3-1.1-0.6-1.3c-0.5-0.4-1.4-0.4-1.6-0.4h-4V13.6z M7.9,22h4.5
		c0.7,0,1.4-0.2,1.9-0.6c0.3-0.3,0.7-0.8,0.7-1.6c0-1-0.4-1.4-0.7-1.6c-0.6-0.5-1.4-0.5-2-0.5H7.9V22z"/>
	<path class="st0" d="M23.6,5.4h10v4.8h-2.1v2.5h4.4c1.6,0,4.2,0.2,5.9,1.8c1,0.9,2,2.4,2,5c0,2.2-1.1,4-2.2,5
		c-1.6,1.5-4.7,1.8-6.5,1.8H23.6v-4.8h2.1V10.2h-2.1V5.4z M31.4,21.8h3.4c0.4,0,1.4,0,2-0.5c0.6-0.5,0.8-1.1,0.8-1.6
		c0-1-0.4-1.5-0.8-1.8c-0.6-0.5-1.4-0.5-2.2-0.5h-3.2V21.8z M44.2,5.4h10v4.8h-2.1v11.4h2.1v4.8h-9.1v-4.5h1.2V10.2h-2.1V5.4z"/>
	<path class="st0" d="M57.2,5.4H67v4.8H65v8l7.3-12.8h7.9v4.8h-2.1v11.4h2.1v4.8h-9.8v-4.8h1.9v-8.1L65,26.4h-7.9v-4.8h2.1V10.2
		h-2.1V5.4z"/>
	<path class="st0" d="M83.2,5.4h17.3v7.9h-4.6V10h-4.8v11.5h2.1v4.8h-9.9v-4.8h2.1V10.2h-2.1V5.4z"/>
	<path class="st0" d="M102.5,5.4h12.1c1.9,0,4.6,0.1,6.4,2c1.6,1.6,1.9,3.7,1.9,5.1c0,1.4-0.4,3.6-2.1,5.2c-1.8,1.8-4.8,1.9-6.4,1.9
		h-4.1v2.2h2.8v4.5h-10.7v-4.8h2.1V10.2h-2.1V5.4z M110.3,15.6h3.2c1.9,0,3.4-0.8,3.4-2.7c0-2-1-2.7-3.5-2.7h-3.1V15.6z"/>
	<path class="st0" d="M124.9,5.4h10v4.8h-2.1v2.5h4.4c1.6,0,4.2,0.2,5.9,1.8c1,0.9,2,2.4,2,5c0,2.2-1.1,4-2.2,5
		c-1.6,1.5-4.7,1.8-6.5,1.8h-11.4v-4.8h2.1V10.2h-2.1V5.4z M132.8,21.8h3.4c0.4,0,1.4,0,2-0.5c0.6-0.5,0.8-1.1,0.8-1.6
		c0-1-0.4-1.5-0.8-1.8c-0.6-0.5-1.4-0.5-2.2-0.5h-3.2V21.8z M145.6,5.4h10v4.8h-2.1v11.4h2.1v4.8h-9.1v-4.5h1.2V10.2h-2.1V5.4z"/>
	<path class="st0" d="M158.6,5.4h13.6c1.4,0,3.5,0.2,4.9,1.5c0.8,0.8,1.4,2.1,1.4,3.7c0,1.2-0.2,2.2-1.2,3.1
		c-0.6,0.7-1.5,1.1-2.3,1.3v0.1c1.3,0.2,2.4,0.8,3.1,1.5c1.2,1.2,1.3,2.5,1.3,3.6c0,2.1-0.8,3.4-1.5,4.2c-1.6,1.6-4.1,1.9-5.8,1.9
		h-13.6v-4.8h2.1V10.2h-2.1V5.4z M166.4,13.6h3.7c0.7,0,1.5-0.2,1.9-0.7c0.3-0.2,0.5-0.7,0.5-1.4s-0.3-1.1-0.6-1.3
		c-0.5-0.4-1.4-0.4-1.6-0.4h-4V13.6z M166.4,22h4.5c0.7,0,1.4-0.2,1.9-0.6c0.3-0.3,0.7-0.8,0.7-1.6c0-1-0.4-1.4-0.7-1.6
		c-0.6-0.5-1.4-0.5-2-0.5h-4.4V22z"/>
	<path class="st0" d="M184.8,5.4h9.5l6,16.2h2.1v4.8h-9.2v-4.3h1.5l-0.4-1.5h-6.1l-0.5,1.5h1.8v4.3h-9v-4.8h2.1l4.2-11.5h-2V5.4z
		 M189.1,16.8h3.9l-2-6.5L189.1,16.8z"/>
	<path class="st0" d="M203.6,5.4h9.8v4.8h-1.9v8l7.3-12.8h7.9v4.8h-2.1v11.4h2.1v4.8h-9.8v-4.8h1.9v-8.1l-7.3,12.9h-7.9v-4.8h2.1
		V10.2h-2.1V5.4z M222.2,0c-0.1,4-4,4.6-7.2,4.6c-3,0-7-0.7-7-4.6h4.9c0,1.4,1,1.9,2.1,1.9s2.1-0.5,2.2-1.9H222.2z"/>
	<path class="st0" d="M236.7,5.4v5.3l-1.5,8.2h-2.9l-1.5-8.2V5.4H236.7z M231.1,21.2h5.4v5.2h-5.4V21.2z"/>
</g>
</svg>
